<svg width="215" height="28" viewBox="0 0 215 28" fill="none" xmlns="http://www.w3.org/2000/svg">
<path d="M34.316 9.24609C35.2961 12.0789 35.2799 15.1615 34.2699 17.9838C33.26 20.8061 31.3168 23.1991 28.762 24.767C29.8461 25.642 31.1239 26.2449 32.4886 26.5251C33.8534 26.8054 35.2654 26.7549 36.6066 26.3778C37.9478 26.0008 39.1793 25.3082 40.1981 24.358C41.217 23.4077 41.9936 22.2274 42.463 20.9156C42.9324 19.6039 43.081 18.1988 42.8963 16.8179C42.7117 15.437 42.1992 14.1203 41.4017 12.9779C40.6041 11.8356 39.5448 10.9007 38.3121 10.2515C37.0794 9.60225 35.7092 9.25752 34.316 9.24609Z" fill="white"/>
<path d="M34.6933 13.3775C34.6965 11.9122 34.4521 10.4568 33.9705 9.07287C33.0862 6.52021 31.4374 4.30171 29.2482 2.71882C27.059 1.13594 24.4356 0.265417 21.7344 0.225554C19.0331 0.185691 16.3852 0.978419 14.1502 2.49602C11.9153 4.01362 10.2017 6.1825 9.24243 8.70795C13.4933 8.02671 18.414 8.971 21.5409 10.9921L26.0722 13.9395L30.1259 16.5755H28.4158V24.5932C30.3349 23.4177 31.92 21.769 33.0192 19.8052C34.1184 17.8413 34.6948 15.6281 34.6933 13.3775Z" fill="white"/>
<path d="M14.6708 24.5995V24.5874C14.6708 24.5882 14.6707 24.589 14.6704 24.5898C14.67 24.5906 14.6696 24.5913 14.669 24.5919C14.6684 24.5924 14.6677 24.5929 14.667 24.5932C14.6662 24.5935 14.6654 24.5937 14.6646 24.5936C14.6645 24.5944 14.6647 24.5952 14.665 24.596C14.6653 24.5967 14.6658 24.5974 14.6664 24.5979C14.667 24.5985 14.6677 24.5989 14.6684 24.5992C14.6692 24.5994 14.67 24.5996 14.6708 24.5995Z" fill="white"/>
<path d="M9.06893 9.05392C6.76111 9.41901 4.65668 10.2618 3.14407 11.6846C3.06642 11.7503 2.99482 11.823 2.92287 11.8941C1.31453 13.4596 0.371193 15.5847 0.288841 17.8277C0.206489 20.0707 0.991458 22.2592 2.48066 23.9385C3.96986 25.6178 6.0488 26.6588 8.28555 26.8452C10.5223 27.0316 12.7449 26.3491 14.4915 24.9395C14.4924 24.9396 14.4932 24.9394 14.494 24.9391C14.4947 24.9388 14.4954 24.9384 14.496 24.9378C14.4966 24.9372 14.497 24.9365 14.4973 24.9357C14.4976 24.935 14.4978 24.9341 14.4978 24.9333V16.922H12.782L16.8355 14.2854L21.3667 11.338C18.2405 9.31714 13.3202 8.37267 9.06893 9.05392Z" fill="white"/>
<path d="M19.6501 24.5937H23.4377V18.4517H19.6501V24.5937ZM22.6124 22.0556C22.6443 22.0558 22.6758 22.0624 22.7051 22.0749C22.7344 22.0874 22.761 22.1056 22.7833 22.1284C22.8056 22.1511 22.8231 22.1781 22.835 22.2077C22.8468 22.2373 22.8527 22.2689 22.8523 22.3008C22.8526 22.3324 22.8466 22.3637 22.8346 22.3929C22.8227 22.4222 22.805 22.4487 22.7827 22.4711C22.7604 22.4934 22.7338 22.5111 22.7046 22.523C22.6753 22.535 22.644 22.541 22.6124 22.5407C22.5805 22.5411 22.5488 22.5353 22.5192 22.5235C22.4896 22.5116 22.4626 22.4941 22.4398 22.4718C22.4169 22.4495 22.3987 22.4229 22.3862 22.3936C22.3737 22.3642 22.3671 22.3327 22.3668 22.3008C22.3674 22.236 22.3934 22.174 22.4392 22.1282C22.485 22.0824 22.5469 22.0563 22.6117 22.0556H22.6124Z" fill="white"/>
<path d="M65.3804 21.7868H62.0658V15.0182H55.856V21.7868H52.5308V6.10498H55.856V12.2517H62.0658V6.10498H65.3803L65.3804 21.7868Z" fill="white"/>
<path d="M80.4181 15.7696C80.4181 17.7215 79.9032 19.2481 78.8732 20.3493C77.8433 21.4506 76.4095 22.0013 74.5718 22.0014C73.4208 22.0014 72.4055 21.7494 71.5259 21.2454C70.6469 20.7417 69.9403 19.9845 69.4982 19.0729C69.0266 18.1292 68.7909 17.0281 68.791 15.7696C68.791 13.8101 69.302 12.287 70.324 11.2001C71.346 10.1133 72.7834 9.56982 74.6361 9.56982C75.7876 9.56982 76.803 9.82013 77.6824 10.3207C78.5601 10.8184 79.2668 11.5699 79.7097 12.4765C80.1818 13.4131 80.4179 14.5108 80.4181 15.7696ZM72.126 15.7696C72.126 16.9564 72.321 17.8537 72.7111 18.4617C73.1012 19.0696 73.7357 19.3735 74.6147 19.3735C75.4869 19.3735 76.1144 19.0713 76.4972 18.4668C76.88 17.8624 77.0713 16.9631 77.0711 15.7691C77.0711 14.5823 76.878 13.692 76.4917 13.098C76.1054 12.5041 75.4728 12.2076 74.594 12.2085C73.7217 12.2085 73.0924 12.5035 72.7059 13.0934C72.3195 13.6834 72.1262 14.5754 72.1261 15.7696H72.126Z" fill="white"/>
<path d="M94.2972 21.7866H91.0256V14.7826C91.0256 13.9175 90.8809 13.2686 90.5917 12.8358C90.3024 12.403 89.8464 12.1867 89.2236 12.1869C88.3867 12.1869 87.779 12.4943 87.4006 13.1091C87.0221 13.7239 86.8327 14.7358 86.8322 16.1448V21.7868H83.5605V9.79463H86.0595L86.4998 11.3289H86.6818C87.0104 10.7712 87.495 10.3218 88.0759 10.0361C88.7258 9.71546 89.4433 9.5555 90.1679 9.56972C91.9619 9.56972 93.1774 10.1561 93.8143 11.3289H94.1048C94.4359 10.7622 94.9314 10.3095 95.5256 10.0307C96.1867 9.71552 96.9118 9.55777 97.6441 9.56984C99.0022 9.56984 100.03 9.91834 100.728 10.6154C101.425 11.3124 101.774 12.4298 101.774 13.9675V21.7863H98.4914V14.7826C98.4914 13.9175 98.3465 13.2686 98.0567 12.8358C97.7669 12.403 97.3111 12.1867 96.6895 12.1869C95.8888 12.1869 95.2897 12.4729 94.8922 13.0448C94.4948 13.6168 94.2964 14.525 94.2972 15.7695V21.7866Z" fill="white"/>
<path d="M110.998 22.0013C109.067 22.0013 107.558 21.4686 106.471 20.4032C105.384 19.3377 104.84 17.8289 104.841 15.8765C104.841 13.8669 105.343 12.3133 106.348 11.2159C107.353 10.1184 108.742 9.56975 110.515 9.56982C112.209 9.56982 113.528 10.0526 114.473 11.0182C115.417 11.9837 115.889 13.3173 115.888 15.0188V16.6062H108.155C108.191 17.536 108.466 18.2621 108.981 18.7847C109.496 19.3072 110.218 19.568 111.148 19.5672C111.837 19.5709 112.524 19.4955 113.196 19.3423C113.892 19.1737 114.568 18.9327 115.213 18.6232V21.1549C114.631 21.4446 114.015 21.6591 113.378 21.7931C112.594 21.9447 111.796 22.0145 110.998 22.0013ZM110.536 11.8973C109.842 11.8973 109.299 12.1171 108.906 12.5567C108.513 12.9963 108.288 13.6202 108.23 14.4282H112.821C112.807 13.6202 112.596 12.9963 112.188 12.5567C111.781 12.1171 111.23 11.8973 110.536 11.8973Z" fill="white"/>
<path d="M125.907 8.64718C124.655 8.64718 123.686 9.11737 123 10.0577C122.314 10.9981 121.971 12.3085 121.97 13.989C121.97 17.4856 123.282 19.2339 125.907 19.2339C127.008 19.2339 128.341 18.9585 129.907 18.4077V21.197C128.62 21.7332 127.183 22.0014 125.595 22.0014C123.314 22.0014 121.57 21.3094 120.361 19.9256C119.153 18.5418 118.549 16.5557 118.549 13.9674C118.549 12.3367 118.845 10.9084 119.439 9.68234C119.987 8.50545 120.879 7.52201 121.997 6.86123C123.109 6.20716 124.412 5.88004 125.906 5.87988C127.429 5.87988 128.959 6.24809 130.497 6.98452L129.424 9.68729C128.848 9.41253 128.257 9.16902 127.655 8.95781C127.094 8.75648 126.503 8.65145 125.907 8.64718Z" fill="white"/>
<path d="M136.697 21.7868H133.425V5.09668H136.697V21.7868Z" fill="white"/>
<path d="M151.466 15.7696C151.466 17.7215 150.951 19.2481 149.922 20.3493C148.892 21.4506 147.458 22.0013 145.62 22.0014C144.468 22.0014 143.453 21.7494 142.574 21.2454C141.695 20.7419 140.988 19.9847 140.547 19.0729C140.075 18.1292 139.839 17.0281 139.839 15.7696C139.839 13.8101 140.35 12.287 141.373 11.2001C142.396 10.1133 143.833 9.56982 145.685 9.56982C146.836 9.56982 147.851 9.82013 148.731 10.3207C149.608 10.8188 150.315 11.5702 150.758 12.4765C151.23 13.4131 151.466 14.5108 151.466 15.7696ZM143.175 15.7696C143.175 16.9564 143.369 17.8537 143.759 18.4617C144.148 19.0696 144.783 19.3735 145.663 19.3735C146.535 19.3735 147.163 19.0713 147.546 18.4668C147.928 17.8624 148.12 16.9631 148.12 15.7691C148.12 14.5823 147.926 13.692 147.54 13.098C147.154 12.5041 146.521 12.2074 145.641 12.2079C144.769 12.2079 144.14 12.5029 143.754 13.0929C143.368 13.6828 143.175 14.575 143.175 15.7696H143.175Z" fill="white"/>
<path d="M163.104 21.7869L162.664 20.2531H162.492C162.131 20.8198 161.613 21.2689 161.001 21.5454C160.311 21.8593 159.559 22.0151 158.801 22.0016C157.393 22.0016 156.331 21.6242 155.616 20.8695C154.901 20.1148 154.543 19.0297 154.544 17.6142V9.79539H157.815V16.7994C157.815 17.6645 157.969 18.3134 158.276 18.7462C158.583 19.179 159.073 19.3953 159.746 19.3952C160.66 19.3952 161.322 19.0894 161.73 18.4777C162.138 17.8661 162.342 16.8526 162.341 15.437V9.79492H165.613V21.7869H163.104Z" fill="white"/>
<path d="M173.282 22.0013C171.874 22.0013 170.767 21.4542 169.963 20.36C169.158 19.2657 168.756 17.7497 168.756 15.8119C168.756 13.8457 169.166 12.3137 169.984 11.2159C170.802 10.1181 171.931 9.56946 173.368 9.56986C174.876 9.56986 176.028 10.1563 176.822 11.3291H176.929C176.775 10.5407 176.692 9.74006 176.682 8.93682V5.09668H179.964V21.7868H177.455L176.822 20.2315H176.682C175.939 21.4115 174.805 22.0015 173.282 22.0013ZM174.43 19.3949C175.267 19.3949 175.88 19.1517 176.269 18.6654C176.659 18.1791 176.871 17.3532 176.908 16.1879V15.8337C176.908 14.5463 176.709 13.6239 176.312 13.0665C175.915 12.5091 175.27 12.2305 174.376 12.2305C174.036 12.2206 173.699 12.3014 173.401 12.4644C173.102 12.6274 172.852 12.8668 172.676 13.1582C172.272 13.777 172.07 14.6762 172.07 15.8559C172.071 17.0357 172.275 17.9206 172.682 18.5108C173.089 19.1001 173.672 19.3948 174.43 19.3949Z" fill="white"/>
<path d="M189.131 21.1772V12.0122H192.797C193.742 12.0122 194.47 12.2246 194.981 12.6492C195.501 13.0652 195.761 13.6502 195.761 14.4042C195.761 14.9069 195.631 15.3359 195.371 15.6912C195.111 16.0466 194.751 16.3066 194.292 16.4712C194.821 16.6099 195.232 16.8656 195.527 17.2382C195.83 17.6109 195.982 18.0832 195.982 18.6552C195.982 19.4699 195.718 20.0939 195.189 20.5272C194.66 20.9606 193.915 21.1772 192.953 21.1772H189.131ZM190.171 16.1072H192.641C194.019 16.1072 194.708 15.5699 194.708 14.4952C194.708 13.4119 194.019 12.8702 192.641 12.8702H190.171V16.1072ZM190.171 20.3192H192.849C194.236 20.3192 194.929 19.7602 194.929 18.6422C194.929 17.5242 194.236 16.9652 192.849 16.9652H190.171V20.3192ZM200.547 21.2942C199.55 21.2942 198.762 21.0039 198.181 20.4232C197.6 19.8339 197.31 19.0366 197.31 18.0312C197.31 17.3812 197.44 16.8092 197.7 16.3152C197.96 15.8126 198.315 15.4269 198.766 15.1582C199.225 14.8809 199.754 14.7422 200.352 14.7422C201.21 14.7422 201.882 15.0196 202.367 15.5742C202.852 16.1202 203.095 16.8742 203.095 17.8362V18.2392H198.337C198.372 18.9586 198.58 19.5089 198.961 19.8902C199.342 20.2629 199.871 20.4492 200.547 20.4492C200.928 20.4492 201.292 20.3929 201.639 20.2802C201.986 20.1589 202.315 19.9639 202.627 19.6952L202.991 20.4362C202.705 20.7049 202.341 20.9172 201.899 21.0732C201.457 21.2206 201.006 21.2942 200.547 21.2942ZM200.378 15.5222C199.78 15.5222 199.308 15.7086 198.961 16.0812C198.614 16.4539 198.411 16.9436 198.35 17.5502H202.185C202.159 16.9089 201.99 16.4106 201.678 16.0552C201.375 15.6999 200.941 15.5222 200.378 15.5222ZM207.081 21.2942C206.336 21.2942 205.777 21.0992 205.404 20.7092C205.031 20.3106 204.845 19.7386 204.845 18.9932V15.6782H203.61V14.8592H204.845V12.9222H205.898V14.8592H207.9V15.6782H205.898V18.8892C205.898 19.3832 206.002 19.7602 206.21 20.0202C206.418 20.2716 206.756 20.3972 207.224 20.3972C207.363 20.3972 207.501 20.3799 207.64 20.3452C207.779 20.3106 207.904 20.2759 208.017 20.2412L208.199 21.0472C208.086 21.1079 207.922 21.1642 207.705 21.2162C207.488 21.2682 207.28 21.2942 207.081 21.2942ZM211.007 21.2942C210.573 21.2942 210.183 21.2119 209.837 21.0472C209.499 20.8739 209.23 20.6399 209.031 20.3452C208.831 20.0506 208.732 19.7212 208.732 19.3572C208.732 18.8979 208.849 18.5339 209.083 18.2652C209.325 17.9966 209.72 17.8059 210.266 17.6932C210.82 17.5719 211.574 17.5112 212.528 17.5112H212.944V17.1082C212.944 16.5709 212.831 16.1852 212.606 15.9512C212.389 15.7086 212.038 15.5872 211.553 15.5872C211.171 15.5872 210.803 15.6436 210.448 15.7562C210.092 15.8602 209.728 16.0336 209.356 16.2762L208.992 15.5092C209.321 15.2752 209.72 15.0889 210.188 14.9502C210.664 14.8116 211.119 14.7422 211.553 14.7422C212.367 14.7422 212.97 14.9416 213.36 15.3402C213.758 15.7389 213.958 16.3586 213.958 17.1992V21.1772H212.97V20.0852C212.805 20.4579 212.549 20.7526 212.203 20.9692C211.865 21.1859 211.466 21.2942 211.007 21.2942ZM211.176 20.5012C211.696 20.5012 212.12 20.3236 212.45 19.9682C212.779 19.6042 212.944 19.1449 212.944 18.5902V18.2002H212.541C211.839 18.2002 211.284 18.2349 210.877 18.3042C210.478 18.3649 210.196 18.4776 210.032 18.6422C209.876 18.7982 209.798 19.0149 209.798 19.2922C209.798 19.6476 209.919 19.9379 210.162 20.1632C210.413 20.3886 210.751 20.5012 211.176 20.5012Z" fill="white"/>
</svg>
