<svg width="45" height="101" viewBox="0 0 45 101" fill="none" xmlns="http://www.w3.org/2000/svg">
<path d="M7.29289 100.707C7.68341 101.098 8.31657 101.098 8.7071 100.707L15.0711 94.3431C15.4616 93.9526 15.4616 93.3195 15.0711 92.9289C14.6805 92.5384 14.0474 92.5384 13.6568 92.9289L7.99999 98.5858L2.34314 92.9289C1.95261 92.5384 1.31945 92.5384 0.928925 92.9289C0.538399 93.3195 0.538399 93.9526 0.928925 94.3431L7.29289 100.707ZM7.99999 13L6.99999 13L7.99999 13ZM45 0L20 1.45041e-06L20 2L45 2L45 0ZM6.99999 13L6.99999 100L8.99999 100L8.99999 13L6.99999 13ZM20 1.45041e-06C12.8203 1.88346e-06 6.99999 5.8203 6.99999 13L8.99999 13C8.99999 6.92487 13.9249 2 20 2L20 1.45041e-06Z" fill="white"/>
</svg>
