<svg width="52" height="16" viewBox="0 0 52 16" fill="none" xmlns="http://www.w3.org/2000/svg">
<path d="M51.7071 8.7071C52.0976 8.31658 52.0976 7.68341 51.7071 7.29289L45.3431 0.928928C44.9526 0.538404 44.3195 0.538404 43.9289 0.928928C43.5384 1.31945 43.5384 1.95262 43.9289 2.34314L49.5858 8L43.9289 13.6569C43.5384 14.0474 43.5384 14.6805 43.9289 15.0711C44.3195 15.4616 44.9526 15.4616 45.3431 15.0711L51.7071 8.7071ZM8.74228e-08 9C0.0661116 9 0.13203 9 0.197757 9C0.263484 9 0.329018 9 0.394362 9C0.459705 9 0.524857 9 0.589818 9C0.65478 9 0.71955 9 0.784131 9C0.848712 9 0.913104 9 0.977306 9C1.04151 9 1.10552 9 1.16935 9C1.23317 9 1.29681 9 1.36026 9C1.4237 9 1.48697 9 1.55004 9C1.61312 9 1.676 9 1.73871 9C1.80141 9 1.86392 9 1.92625 9C1.98858 9 2.05073 9 2.11269 9C2.17465 9 2.23643 9 2.29802 9C2.35961 9 2.42102 9 2.48224 9C2.54347 9 2.60451 9 2.66537 9C2.72623 9 2.78691 9 2.84741 9C2.9079 9 2.96822 9 3.02835 9C3.08849 9 3.14844 9 3.20821 9C3.26799 9 3.32758 9 3.38699 9C3.44641 9 3.50564 9 3.5647 9C3.62375 9 3.68263 9 3.74133 9C3.80003 9 3.85855 9 3.9169 9C3.97524 9 4.03341 9 4.0914 9C4.1494 9 4.20721 9 4.26485 9C4.32249 9 4.37996 9 4.43725 9C4.49454 9 4.55165 9 4.60859 9C4.66553 9 4.7223 9 4.77889 9C4.83549 9 4.89191 9 4.94816 9C5.00441 9 5.06048 9 5.11639 9C5.17229 9 5.22802 9 5.28358 9C5.33914 9 5.39453 9 5.44975 9C5.50497 9 5.56002 9 5.6149 9C5.66979 9 5.7245 9 5.77904 9C5.83358 9 5.88795 9 5.94216 9C5.99637 9 6.0504 9 6.10427 9C6.15814 9 6.21185 9 6.26538 9C6.31892 9 6.37229 9 6.42549 9C6.4787 9 6.53174 9 6.58461 9C6.63749 9 6.69019 9 6.74274 9C6.79528 9 6.84766 9 6.89988 9C6.9521 9 7.00415 9 7.05604 9C7.10793 9 7.15966 9 7.21123 9C7.26279 9 7.3142 9 7.36544 9C7.41668 9 7.46777 9 7.51869 9C7.56961 9 7.62037 9 7.67097 9C7.72157 9 7.77201 9 7.8223 9C7.87258 9 7.9227 9 7.97267 9C8.02264 9 8.07244 9 8.12209 9C8.17174 9 8.22124 9 8.27057 9C8.31991 9 8.36909 9 8.41811 9C8.46713 9 8.516 9 8.56471 9C8.61343 9 8.66198 9 8.71039 9C8.75879 9 8.80704 9 8.85513 9C8.90323 9 8.95117 9 8.99895 9C9.04674 9 9.09438 9 9.14186 9C9.18934 9 9.23668 9 9.28385 9C9.33103 9 9.37806 9 9.42494 9C9.47182 9 9.51854 9 9.56512 9C9.6117 9 9.65813 9 9.7044 9C9.75068 9 9.79681 9 9.84279 9C9.88877 9 9.9346 9 9.98029 9C10.026 9 10.0715 9 10.1169 9C10.1623 9 10.2075 9 10.2526 9C10.2977 9 10.3427 9 10.3875 9C10.4323 9 10.4769 9 10.5215 9C10.566 9 10.6103 9 10.6546 9C10.6988 9 10.7429 9 10.7868 9C10.8308 9 10.8746 9 10.9182 9C10.9619 9 11.0054 9 11.0488 9C11.0921 9 11.1354 9 11.1784 9C11.2215 9 11.2645 9 11.3073 9C11.3501 9 11.3928 9 11.4353 9C11.4778 9 11.5202 9 11.5625 9C11.6047 9 11.6468 9 11.6888 9C11.7308 9 11.7726 9 11.8143 9C11.856 9 11.8976 9 11.939 9C11.9804 9 12.0217 9 12.0628 9C12.104 9 12.145 9 12.1859 9C12.2268 9 12.2675 9 12.3081 9C12.3488 9 12.3892 9 12.4296 9C12.4699 9 12.5101 9 12.5502 9C12.5903 9 12.6302 9 12.6701 9C12.7099 9 12.7496 9 12.7891 9C12.8287 9 12.8681 9 12.9074 9C12.9467 9 12.9858 9 13.0249 9C13.0639 9 13.1028 9 13.1416 9C13.1804 9 13.219 9 13.2575 9C13.296 9 13.3344 9 13.3727 9C13.4109 9 13.4491 9 13.4871 9C13.5251 9 13.563 9 13.6007 9C13.6385 9 13.6761 9 13.7136 9C13.7511 9 13.7885 9 13.8258 9C13.863 9 13.9001 9 13.9372 9C13.9742 9 14.011 9 14.0478 9C14.0846 9 14.1212 9 14.1577 9C14.1942 9 14.2306 9 14.2669 9C14.3032 9 14.3393 9 14.3754 9C14.4114 9 14.4473 9 14.4831 9C14.5189 9 14.5546 9 14.5901 9C14.6257 9 14.6611 9 14.6964 9C14.7317 9 14.7669 9 14.802 9C14.8371 9 14.872 9 14.9069 9C14.9417 9 14.9765 9 15.0111 9C15.0457 9 15.0802 9 15.1146 9C15.1489 9 15.1832 9 15.2174 9C15.2515 9 15.2855 9 15.3195 9C15.3534 9 15.3872 9 15.4209 9C15.4546 9 15.4882 9 15.5216 9C15.5551 9 15.5885 9 15.6217 9C15.655 9 15.6881 9 15.7211 9C15.7542 9 15.7871 9 15.8199 9C15.8527 9 15.8854 9 15.918 9C15.9505 9 15.983 9 16.0154 9C16.0478 9 16.08 9 16.1122 9C16.1443 9 16.1764 9 16.2083 9C16.2402 9 16.2721 9 16.3038 9C16.3355 9 16.3671 9 16.3986 9C16.4301 9 16.4616 9 16.4929 9C16.5242 9 16.5554 9 16.5864 9C16.6175 9 16.6485 9 16.6794 9C16.7103 9 16.7411 9 16.7718 9C16.8024 9 16.833 9 16.8635 9C16.894 9 16.9244 9 16.9546 9C16.9849 9 17.0151 9 17.0451 9C17.0752 9 17.1052 9 17.1351 9C17.1649 9 17.1947 9 17.2244 9C17.2541 9 17.2836 9 17.3131 9C17.3426 9 17.372 9 17.4013 9C17.4305 9 17.4597 9 17.4888 9C17.5179 9 17.5469 9 17.5758 9C17.6047 9 17.6335 9 17.6622 9C17.6909 9 17.7195 9 17.748 9C17.7766 9 17.805 9 17.8333 9C17.8616 9 17.8899 9 17.918 9C17.9462 9 17.9742 9 18.0022 9C18.0301 9 18.058 9 18.0858 9C18.1136 9 18.1412 9 18.1688 9C18.1964 9 18.2239 9 18.2514 9C18.2788 9 18.3061 9 18.3333 9C18.3606 9 18.3877 9 18.4148 9C18.4418 9 18.4688 9 18.4957 9C18.5226 9 18.5494 9 18.5761 9C18.6028 9 18.6294 9 18.656 9C18.6825 9 18.7089 9 18.7353 9C18.7617 9 18.788 9 18.8142 9C18.8404 9 18.8665 9 18.8925 9C18.9185 9 18.9445 9 18.9703 9C18.9962 9 19.022 9 19.0477 9C19.0734 9 19.099 9 19.1245 9C19.1501 9 19.1755 9 19.2009 9C19.2263 9 19.2515 9 19.2768 9C19.302 9 19.3271 9 19.3522 9C19.3772 9 19.4022 9 19.4271 9C19.452 9 19.4768 9 19.5015 9C19.5263 9 19.5509 9 19.5755 9C19.6001 9 19.6246 9 19.649 9C19.6735 9 19.6978 9 19.7221 9C19.7464 9 19.7706 9 19.7947 9C19.8189 9 19.8429 9 19.8669 9C19.8909 9 19.9148 9 19.9386 9C19.9625 9 19.9862 9 20.0099 9C20.0336 9 20.0572 9 20.0808 9C20.1043 9 20.1278 9 20.1512 9C20.1746 9 20.1979 9 20.2212 9C20.2445 9 20.2677 9 20.2908 9C20.3139 9 20.337 9 20.3599 9C20.3829 9 20.4059 9 20.4287 9C20.4516 9 20.4743 9 20.497 9C20.5198 9 20.5424 9 20.565 9C20.5876 9 20.6101 9 20.6325 9C20.655 9 20.6774 9 20.6997 9C20.722 9 20.7443 9 20.7665 9C20.7887 9 20.8108 9 20.8328 9C20.8549 9 20.8769 9 20.8988 9C20.9208 9 20.9427 9 20.9645 9C20.9863 9 21.008 9 21.0297 9C21.0514 9 21.073 9 21.0946 9C21.1162 9 21.1377 9 21.1591 9C21.1806 9 21.202 9 21.2233 9C21.2446 9 21.2659 9 21.2871 9C21.3083 9 21.3295 9 21.3506 9C21.3717 9 21.3927 9 21.4137 9C21.4347 9 21.4556 9 21.4765 9C21.4974 9 21.5182 9 21.539 9C21.5597 9 21.5804 9 21.6011 9C21.6218 9 21.6424 9 21.6629 9C21.6834 9 21.7039 9 21.7244 9C21.7448 9 21.7652 9 21.7855 9C21.8059 9 21.8262 9 21.8464 9C21.8666 9 21.8868 9 21.9069 9C21.9271 9 21.9471 9 21.9672 9C21.9872 9 22.0072 9 22.0271 9C22.047 9 22.0669 9 22.0868 9C22.1066 9 22.1264 9 22.1461 9C22.1659 9 22.1855 9 22.2052 9C22.2248 9 22.2444 9 22.264 9C22.2835 9 22.303 9 22.3225 9C22.342 9 22.3614 9 22.3807 9C22.4001 9 22.4194 9 22.4387 9C22.458 9 22.4773 9 22.4964 9C22.5156 9 22.5348 9 22.5539 9C22.573 9 22.5921 9 22.6111 9C22.6301 9 22.6491 9 22.6681 9C22.687 9 22.7059 9 22.7248 9C22.7437 9 22.7625 9 22.7813 9C22.8 9 22.8188 9 22.8375 9C22.8562 9 22.8749 9 22.8935 9C22.9121 9 22.9307 9 22.9493 9C22.9679 9 22.9864 9 23.0049 9C23.0233 9 23.0418 9 23.0602 9C23.0786 9 23.097 9 23.1153 9C23.1337 9 23.152 9 23.1703 9C23.1885 9 23.2068 9 23.225 9C23.2432 9 23.2614 9 23.2795 9C23.2976 9 23.3158 9 23.3338 9C23.3519 9 23.37 9 23.388 9C23.406 9 23.424 9 23.4419 9C23.4599 9 23.4778 9 23.4957 9C23.5136 9 23.5315 9 23.5493 9C23.5671 9 23.5849 9 23.6027 9C23.6205 9 23.6383 9 23.656 9C23.6737 9 23.6914 9 23.7091 9C23.7267 9 23.7444 9 23.762 9C23.7796 9 23.7972 9 23.8148 9C23.8324 9 23.8499 9 23.8674 9C23.8849 9 23.9024 9 23.9199 9C23.9374 9 23.9548 9 23.9723 9C23.9897 9 24.0071 9 24.0245 9C24.0419 9 24.0592 9 24.0766 9C24.0939 9 24.1112 9 24.1285 9C24.1458 9 24.1631 9 24.1803 9C24.1976 9 24.2148 9 24.2321 9C24.2493 9 24.2665 9 24.2837 9C24.3009 9 24.318 9 24.3352 9C24.3523 9 24.3694 9 24.3866 9C24.4037 9 24.4208 9 24.4378 9C24.4549 9 24.472 9 24.489 9C24.5061 9 24.5231 9 24.5401 9C24.5572 9 24.5742 9 24.5912 9C24.6082 9 24.6251 9 24.6421 9C24.6591 9 24.676 9 24.693 9C24.7099 9 24.7268 9 24.7438 9C24.7607 9 24.7776 9 24.7945 9C24.8114 9 24.8283 9 24.8451 9C24.862 9 24.8789 9 24.8957 9C24.9126 9 24.9294 9 24.9463 9C24.9631 9 24.98 9 24.9968 9C25.0136 9 25.0304 9 25.0472 9C25.064 9 25.0808 9 25.0976 9C25.1144 9 25.1312 9 25.148 9C25.1648 9 25.1816 9 25.1984 9C25.2151 9 25.2319 9 25.2487 9C25.2654 9 25.2822 9 25.299 9C25.3157 9 25.3325 9 25.3492 9C25.366 9 25.3827 9 25.3995 9C25.4163 9 25.433 9 25.4498 9C25.4665 9 25.4833 9 25.5 9C25.5168 9 25.5335 9 25.5502 9C25.567 9 25.5837 9 25.6005 9C25.6173 9 25.634 9 25.6508 9C25.6675 9 25.6843 9 25.701 9C25.7178 9 25.7346 9 25.7513 9C25.7681 9 25.7849 9 25.8016 9C25.8184 9 25.8352 9 25.852 9C25.8688 9 25.8856 9 25.9024 9C25.9192 9 25.936 9 25.9528 9C25.9696 9 25.9864 9 26.0032 9C26.02 9 26.0369 9 26.0537 9C26.0706 9 26.0874 9 26.1043 9C26.1211 9 26.138 9 26.1549 9C26.1717 9 26.1886 9 26.2055 9C26.2224 9 26.2393 9 26.2562 9C26.2732 9 26.2901 9 26.307 9C26.324 9 26.3409 9 26.3579 9C26.3749 9 26.3918 9 26.4088 9C26.4258 9 26.4428 9 26.4599 9C26.4769 9 26.4939 9 26.511 9C26.528 9 26.5451 9 26.5622 9C26.5792 9 26.5963 9 26.6134 9C26.6306 9 26.6477 9 26.6648 9C26.682 9 26.6992 9 26.7163 9C26.7335 9 26.7507 9 26.7679 9C26.7852 9 26.8024 9 26.8197 9C26.8369 9 26.8542 9 26.8715 9C26.8888 9 26.9061 9 26.9234 9C26.9408 9 26.9581 9 26.9755 9C26.9929 9 27.0103 9 27.0277 9C27.0452 9 27.0626 9 27.0801 9C27.0976 9 27.1151 9 27.1326 9C27.1501 9 27.1676 9 27.1852 9C27.2028 9 27.2204 9 27.238 9C27.2556 9 27.2733 9 27.2909 9C27.3086 9 27.3263 9 27.344 9C27.3617 9 27.3795 9 27.3973 9C27.4151 9 27.4329 9 27.4507 9C27.4685 9 27.4864 9 27.5043 9C27.5222 9 27.5401 9 27.5581 9C27.576 9 27.594 9 27.612 9C27.63 9 27.6481 9 27.6662 9C27.6842 9 27.7024 9 27.7205 9C27.7386 9 27.7568 9 27.775 9C27.7932 9 27.8115 9 27.8297 9C27.848 9 27.8663 9 27.8847 9C27.903 9 27.9214 9 27.9398 9C27.9582 9 27.9767 9 27.9951 9C28.0136 9 28.0321 9 28.0507 9C28.0693 9 28.0879 9 28.1065 9C28.1251 9 28.1438 9 28.1625 9C28.1812 9 28.2 9 28.2187 9C28.2375 9 28.2563 9 28.2752 9C28.2941 9 28.313 9 28.3319 9C28.3509 9 28.3699 9 28.3889 9C28.4079 9 28.427 9 28.4461 9C28.4652 9 28.4844 9 28.5036 9C28.5228 9 28.542 9 28.5613 9C28.5806 9 28.5999 9 28.6193 9C28.6386 9 28.658 9 28.6775 9C28.697 9 28.7165 9 28.736 9C28.7556 9 28.7752 9 28.7948 9C28.8145 9 28.8341 9 28.8539 9C28.8736 9 28.8934 9 28.9132 9C28.9331 9 28.953 9 28.9729 9C28.9928 9 29.0128 9 29.0328 9C29.0529 9 29.0729 9 29.0931 9C29.1132 9 29.1334 9 29.1536 9C29.1738 9 29.1941 9 29.2145 9C29.2348 9 29.2552 9 29.2756 9C29.2961 9 29.3166 9 29.3371 9C29.3576 9 29.3782 9 29.3989 9C29.4196 9 29.4403 9 29.461 9C29.4818 9 29.5026 9 29.5235 9C29.5444 9 29.5653 9 29.5863 9C29.6073 9 29.6283 9 29.6494 9C29.6705 9 29.6917 9 29.7129 9C29.7341 9 29.7554 9 29.7767 9C29.798 9 29.8194 9 29.8409 9C29.8623 9 29.8838 9 29.9054 9C29.927 9 29.9486 9 29.9703 9C29.992 9 30.0137 9 30.0355 9C30.0573 9 30.0792 9 30.1012 9C30.1231 9 30.1451 9 30.1672 9C30.1892 9 30.2114 9 30.2335 9C30.2557 9 30.278 9 30.3003 9C30.3226 9 30.345 9 30.3675 9C30.3899 9 30.4124 9 30.435 9C30.4576 9 30.4802 9 30.503 9C30.5257 9 30.5485 9 30.5713 9C30.5942 9 30.6171 9 30.6401 9C30.663 9 30.6861 9 30.7092 9C30.7323 9 30.7555 9 30.7788 9C30.8021 9 30.8254 9 30.8488 9C30.8722 9 30.8957 9 30.9192 9C30.9428 9 30.9664 9 30.9901 9C31.0138 9 31.0375 9 31.0614 9C31.0852 9 31.1091 9 31.1331 9C31.1571 9 31.1811 9 31.2053 9C31.2294 9 31.2536 9 31.2779 9C31.3022 9 31.3265 9 31.351 9C31.3754 9 31.3999 9 31.4245 9C31.4491 9 31.4737 9 31.4985 9C31.5232 9 31.548 9 31.5729 9C31.5978 9 31.6228 9 31.6478 9C31.6729 9 31.698 9 31.7232 9C31.7485 9 31.7737 9 31.7991 9C31.8245 9 31.8499 9 31.8755 9C31.901 9 31.9266 9 31.9523 9C31.978 9 32.0038 9 32.0297 9C32.0555 9 32.0815 9 32.1075 9C32.1335 9 32.1596 9 32.1858 9C32.212 9 32.2383 9 32.2647 9C32.2911 9 32.3175 9 32.344 9C32.3706 9 32.3972 9 32.4239 9C32.4506 9 32.4774 9 32.5043 9C32.5312 9 32.5582 9 32.5852 9C32.6123 9 32.6394 9 32.6667 9C32.6939 9 32.7212 9 32.7486 9C32.7761 9 32.8036 9 32.8312 9C32.8588 9 32.8864 9 32.9142 9C32.942 9 32.9699 9 32.9978 9C33.0258 9 33.0538 9 33.082 9C33.1101 9 33.1384 9 33.1667 9C33.195 9 33.2234 9 33.252 9C33.2805 9 33.3091 9 33.3378 9C33.3665 9 33.3953 9 33.4242 9C33.4531 9 33.4821 9 33.5112 9C33.5403 9 33.5695 9 33.5987 9C33.628 9 33.6574 9 33.6869 9C33.7164 9 33.7459 9 33.7756 9C33.8053 9 33.8351 9 33.8649 9C33.8948 9 33.9248 9 33.9549 9C33.9849 9 34.0151 9 34.0454 9C34.0756 9 34.106 9 34.1365 9C34.167 9 34.1976 9 34.2282 9C34.2589 9 34.2897 9 34.3206 9C34.3515 9 34.3825 9 34.4136 9C34.4446 9 34.4758 9 34.5071 9C34.5384 9 34.5699 9 34.6014 9C34.6329 9 34.6645 9 34.6962 9C34.7279 9 34.7598 9 34.7917 9C34.8236 9 34.8557 9 34.8878 9C34.92 9 34.9522 9 34.9846 9C35.017 9 35.0495 9 35.082 9C35.1146 9 35.1473 9 35.1801 9C35.2129 9 35.2458 9 35.2789 9C35.3119 9 35.345 9 35.3783 9C35.4115 9 35.4449 9 35.4784 9C35.5118 9 35.5454 9 35.5791 9C35.6128 9 35.6466 9 35.6805 9C35.7145 9 35.7485 9 35.7827 9C35.8168 9 35.8511 9 35.8854 9C35.9198 9 35.9543 9 35.9889 9C36.0235 9 36.0583 9 36.0931 9C36.128 9 36.1629 9 36.198 9C36.2331 9 36.2683 9 36.3036 9C36.3389 9 36.3743 9 36.4099 9C36.4454 9 36.4811 9 36.5169 9C36.5527 9 36.5886 9 36.6246 9C36.6607 9 36.6968 9 36.7331 9C36.7694 9 36.8058 9 36.8423 9C36.8788 9 36.9154 9 36.9522 9C36.989 9 37.0258 9 37.0629 9C37.0999 9 37.137 9 37.1742 9C37.2115 9 37.2489 9 37.2864 9C37.3239 9 37.3615 9 37.3993 9C37.437 9 37.4749 9 37.5129 9C37.5509 9 37.5891 9 37.6273 9C37.6656 9 37.704 9 37.7425 9C37.781 9 37.8196 9 37.8584 9C37.8972 9 37.9361 9 37.9751 9C38.0142 9 38.0533 9 38.0926 9C38.1319 9 38.1713 9 38.2109 9C38.2504 9 38.2901 9 38.3299 9C38.3698 9 38.4097 9 38.4498 9C38.4899 9 38.5301 9 38.5704 9C38.6108 9 38.6512 9 38.6919 9C38.7325 9 38.7732 9 38.8141 9C38.855 9 38.896 9 38.9372 9C38.9783 9 39.0196 9 39.061 9C39.1025 9 39.144 9 39.1857 9C39.2274 9 39.2692 9 39.3112 9C39.3532 9 39.3953 9 39.4375 9C39.4798 9 39.5222 9 39.5647 9C39.6072 9 39.6499 9 39.6927 9C39.7355 9 39.7785 9 39.8216 9C39.8647 9 39.9079 9 39.9512 9C39.9946 9 40.0381 9 40.0818 9C40.1254 9 40.1692 9 40.2132 9C40.2571 9 40.3012 9 40.3454 9C40.3897 9 40.434 9 40.4785 9C40.5231 9 40.5677 9 40.6125 9C40.6573 9 40.7023 9 40.7474 9C40.7925 9 40.8377 9 40.8831 9C40.9285 9 40.974 9 41.0197 9C41.0654 9 41.1112 9 41.1572 9C41.2032 9 41.2493 9 41.2956 9C41.3419 9 41.3883 9 41.4349 9C41.4815 9 41.5282 9 41.5751 9C41.6219 9 41.669 9 41.7161 9C41.7633 9 41.8107 9 41.8581 9C41.9056 9 41.9533 9 42.001 9C42.0488 9 42.0968 9 42.1449 9C42.193 9 42.2412 9 42.2896 9C42.338 9 42.3866 9 42.4353 9C42.484 9 42.5329 9 42.5819 9C42.6309 9 42.6801 9 42.7294 9C42.7788 9 42.8283 9 42.8779 9C42.9276 9 42.9774 9 43.0273 9C43.0773 9 43.1274 9 43.1777 9C43.228 9 43.2784 9 43.329 9C43.3796 9 43.4304 9 43.4813 9C43.5322 9 43.5833 9 43.6346 9C43.6858 9 43.7372 9 43.7888 9C43.8403 9 43.8921 9 43.944 9C43.9958 9 44.0479 9 44.1001 9C44.1523 9 44.2047 9 44.2573 9C44.3098 9 44.3625 9 44.4154 9C44.4683 9 44.5213 9 44.5745 9C44.6277 9 44.6811 9 44.7346 9C44.7882 9 44.8419 9 44.8957 9C44.9496 9 45.0036 9 45.0578 9C45.112 9 45.1664 9 45.221 9C45.2755 9 45.3302 9 45.3851 9C45.44 9 45.495 9 45.5502 9C45.6055 9 45.6609 9 45.7164 9C45.772 9 45.8277 9 45.8836 9C45.9395 9 45.9956 9 46.0518 9C46.1081 9 46.1645 9 46.2211 9C46.2777 9 46.3345 9 46.3914 9C46.4483 9 46.5055 9 46.5628 9C46.62 9 46.6775 9 46.7351 9C46.7928 9 46.8506 9 46.9086 9C46.9666 9 47.0248 9 47.0831 9C47.1414 9 47.2 9 47.2587 9C47.3174 9 47.3762 9 47.4353 9C47.4944 9 47.5536 9 47.613 9C47.6724 9 47.732 9 47.7918 9C47.8516 9 47.9115 9 47.9716 9C48.0318 9 48.0921 9 48.1526 9C48.2131 9 48.2738 9 48.3346 9C48.3955 9 48.4565 9 48.5178 9C48.579 9 48.6404 9 48.702 9C48.7636 9 48.8254 9 48.8873 9C48.9493 9 49.0114 9 49.0737 9C49.1361 9 49.1986 9 49.2613 9C49.324 9 49.3869 9 49.45 9C49.513 9 49.5763 9 49.6397 9C49.7032 9 49.7668 9 49.8307 9C49.8945 9 49.9585 9 50.0227 9C50.0869 9 50.1513 9 50.2159 9C50.2805 9 50.3452 9 50.4102 9C50.4751 9 50.5403 9 50.6056 9C50.671 9 50.7365 9 50.8022 9C50.868 9 50.9339 9 51 9L51 7C50.9339 7 50.868 7 50.8022 7C50.7365 7 50.671 7 50.6056 7C50.5403 7 50.4751 7 50.4102 7C50.3452 7 50.2805 7 50.2159 7C50.1513 7 50.0869 7 50.0227 7C49.9585 7 49.8945 7 49.8307 7C49.7668 7 49.7032 7 49.6397 7C49.5763 7 49.513 7 49.45 7C49.3869 7 49.324 7 49.2613 7C49.1986 7 49.1361 7 49.0737 7C49.0114 7 48.9493 7 48.8873 7C48.8254 7 48.7636 7 48.702 7C48.6404 7 48.579 7 48.5178 7C48.4565 7 48.3955 7 48.3346 7C48.2738 7 48.2131 7 48.1526 7C48.0921 7 48.0318 7 47.9716 7C47.9115 7 47.8516 7 47.7918 7C47.732 7 47.6724 7 47.613 7C47.5536 7 47.4944 7 47.4353 7C47.3762 7 47.3174 7 47.2587 7C47.2 7 47.1414 7 47.0831 7C47.0248 7 46.9666 7 46.9086 7C46.8506 7 46.7928 7 46.7351 7C46.6775 7 46.62 7 46.5628 7C46.5055 7 46.4483 7 46.3914 7C46.3345 7 46.2777 7 46.2211 7C46.1645 7 46.1081 7 46.0518 7C45.9956 7 45.9395 7 45.8836 7C45.8277 7 45.772 7 45.7164 7C45.6609 7 45.6055 7 45.5502 7C45.495 7 45.44 7 45.3851 7C45.3302 7 45.2755 7 45.221 7C45.1664 7 45.112 7 45.0578 7C45.0036 7 44.9496 7 44.8957 7C44.8419 7 44.7882 7 44.7346 7C44.6811 7 44.6277 7 44.5745 7C44.5213 7 44.4683 7 44.4154 7C44.3625 7 44.3098 7 44.2573 7C44.2047 7 44.1523 7 44.1001 7C44.0479 7 43.9958 7 43.944 7C43.8921 7 43.8403 7 43.7888 7C43.7372 7 43.6858 7 43.6346 7C43.5833 7 43.5322 7 43.4813 7C43.4304 7 43.3796 7 43.329 7C43.2784 7 43.228 7 43.1777 7C43.1274 7 43.0773 7 43.0273 7C42.9774 7 42.9276 7 42.8779 7C42.8283 7 42.7788 7 42.7294 7C42.6801 7 42.6309 7 42.5819 7C42.5329 7 42.484 7 42.4353 7C42.3866 7 42.338 7 42.2896 7C42.2412 7 42.193 7 42.1449 7C42.0968 7 42.0488 7 42.001 7C41.9533 7 41.9056 7 41.8581 7C41.8107 7 41.7633 7 41.7161 7C41.669 7 41.6219 7 41.5751 7C41.5282 7 41.4815 7 41.4349 7C41.3883 7 41.3419 7 41.2956 7C41.2493 7 41.2032 7 41.1572 7C41.1112 7 41.0654 7 41.0197 7C40.974 7 40.9285 7 40.8831 7C40.8377 7 40.7925 7 40.7474 7C40.7023 7 40.6573 7 40.6125 7C40.5677 7 40.5231 7 40.4785 7C40.434 7 40.3897 7 40.3454 7C40.3012 7 40.2571 7 40.2132 7C40.1692 7 40.1254 7 40.0818 7C40.0381 7 39.9946 7 39.9512 7C39.9079 7 39.8647 7 39.8216 7C39.7785 7 39.7355 7 39.6927 7C39.6499 7 39.6072 7 39.5647 7C39.5222 7 39.4798 7 39.4375 7C39.3953 7 39.3532 7 39.3112 7C39.2692 7 39.2274 7 39.1857 7C39.144 7 39.1025 7 39.061 7C39.0196 7 38.9783 7 38.9372 7C38.896 7 38.855 7 38.8141 7C38.7732 7 38.7325 7 38.6919 7C38.6512 7 38.6108 7 38.5704 7C38.5301 7 38.4899 7 38.4498 7C38.4097 7 38.3698 7 38.3299 7C38.2901 7 38.2504 7 38.2109 7C38.1713 7 38.1319 7 38.0926 7C38.0533 7 38.0142 7 37.9751 7C37.9361 7 37.8972 7 37.8584 7C37.8196 7 37.781 7 37.7425 7C37.704 7 37.6656 7 37.6273 7C37.5891 7 37.5509 7 37.5129 7C37.4749 7 37.437 7 37.3993 7C37.3615 7 37.3239 7 37.2864 7C37.2489 7 37.2115 7 37.1742 7C37.137 7 37.0999 7 37.0629 7C37.0258 7 36.989 7 36.9522 7C36.9154 7 36.8788 7 36.8423 7C36.8058 7 36.7694 7 36.7331 7C36.6968 7 36.6607 7 36.6246 7C36.5886 7 36.5527 7 36.5169 7C36.4811 7 36.4454 7 36.4099 7C36.3743 7 36.3389 7 36.3036 7C36.2683 7 36.2331 7 36.198 7C36.1629 7 36.128 7 36.0931 7C36.0583 7 36.0235 7 35.9889 7C35.9543 7 35.9198 7 35.8854 7C35.8511 7 35.8168 7 35.7826 7C35.7485 7 35.7145 7 35.6805 7C35.6466 7 35.6128 7 35.5791 7C35.5454 7 35.5118 7 35.4784 7C35.4449 7 35.4115 7 35.3783 7C35.345 7 35.3119 7 35.2789 7C35.2458 7 35.2129 7 35.1801 7C35.1473 7 35.1146 7 35.082 7C35.0495 7 35.017 7 34.9846 7C34.9522 7 34.92 7 34.8878 7C34.8557 7 34.8236 7 34.7917 7C34.7598 7 34.7279 7 34.6962 7C34.6645 7 34.6329 7 34.6014 7C34.5699 7 34.5384 7 34.5071 7C34.4758 7 34.4446 7 34.4136 7C34.3825 7 34.3515 7 34.3206 7C34.2897 7 34.2589 7 34.2282 7C34.1976 7 34.167 7 34.1365 7C34.106 7 34.0756 7 34.0454 7C34.0151 7 33.9849 7 33.9549 7C33.9248 7 33.8948 7 33.8649 7C33.8351 7 33.8053 7 33.7756 7C33.7459 7 33.7164 7 33.6869 7C33.6574 7 33.628 7 33.5987 7C33.5695 7 33.5403 7 33.5112 7C33.4821 7 33.4531 7 33.4242 7C33.3953 7 33.3665 7 33.3378 7C33.3091 7 33.2805 7 33.252 7C33.2234 7 33.195 7 33.1667 7C33.1384 7 33.1101 7 33.082 7C33.0538 7 33.0258 7 32.9978 7C32.9699 7 32.942 7 32.9142 7C32.8864 7 32.8588 7 32.8312 7C32.8036 7 32.7761 7 32.7486 7C32.7212 7 32.6939 7 32.6667 7C32.6394 7 32.6123 7 32.5852 7C32.5582 7 32.5312 7 32.5043 7C32.4774 7 32.4506 7 32.4239 7C32.3972 7 32.3706 7 32.344 7C32.3175 7 32.2911 7 32.2647 7C32.2383 7 32.212 7 32.1858 7C32.1596 7 32.1335 7 32.1075 7C32.0815 7 32.0555 7 32.0297 7C32.0038 7 31.978 7 31.9523 7C31.9266 7 31.901 7 31.8755 7C31.8499 7 31.8245 7 31.7991 7C31.7737 7 31.7485 7 31.7232 7C31.698 7 31.6729 7 31.6478 7C31.6228 7 31.5978 7 31.5729 7C31.548 7 31.5232 7 31.4985 7C31.4737 7 31.4491 7 31.4245 7C31.3999 7 31.3754 7 31.351 7C31.3265 7 31.3022 7 31.2779 7C31.2536 7 31.2294 7 31.2053 7C31.1811 7 31.1571 7 31.1331 7C31.1091 7 31.0852 7 31.0614 7C31.0375 7 31.0138 7 30.9901 7C30.9664 7 30.9428 7 30.9192 7C30.8957 7 30.8722 7 30.8488 7C30.8254 7 30.8021 7 30.7788 7C30.7555 7 30.7323 7 30.7092 7C30.6861 7 30.663 7 30.6401 7C30.6171 7 30.5942 7 30.5713 7C30.5485 7 30.5257 7 30.503 7C30.4802 7 30.4576 7 30.435 7C30.4124 7 30.3899 7 30.3675 7C30.345 7 30.3226 7 30.3003 7C30.278 7 30.2557 7 30.2335 7C30.2114 7 30.1892 7 30.1672 7C30.1451 7 30.1231 7 30.1012 7C30.0792 7 30.0573 7 30.0355 7C30.0137 7 29.992 7 29.9703 7C29.9486 7 29.927 7 29.9054 7C29.8838 7 29.8623 7 29.8409 7C29.8194 7 29.798 7 29.7767 7C29.7554 7 29.7341 7 29.7129 7C29.6917 7 29.6705 7 29.6494 7C29.6283 7 29.6073 7 29.5863 7C29.5653 7 29.5444 7 29.5235 7C29.5026 7 29.4818 7 29.461 7C29.4403 7 29.4196 7 29.3989 7C29.3782 7 29.3576 7 29.3371 7C29.3166 7 29.2961 7 29.2756 7C29.2552 7 29.2348 7 29.2145 7C29.1941 7 29.1738 7 29.1536 7C29.1334 7 29.1132 7 29.0931 7C29.0729 7 29.0529 7 29.0328 7C29.0128 7 28.9928 7 28.9729 7C28.953 7 28.9331 7 28.9132 7C28.8934 7 28.8736 7 28.8539 7C28.8341 7 28.8145 7 28.7948 7C28.7752 7 28.7556 7 28.736 7C28.7165 7 28.697 7 28.6775 7C28.658 7 28.6386 7 28.6193 7C28.5999 7 28.5806 7 28.5613 7C28.542 7 28.5228 7 28.5036 7C28.4844 7 28.4652 7 28.4461 7C28.427 7 28.4079 7 28.3889 7C28.3699 7 28.3509 7 28.3319 7C28.313 7 28.2941 7 28.2752 7C28.2563 7 28.2375 7 28.2187 7C28.2 7 28.1812 7 28.1625 7C28.1438 7 28.1251 7 28.1065 7C28.0879 7 28.0693 7 28.0507 7C28.0321 7 28.0136 7 27.9951 7C27.9767 7 27.9582 7 27.9398 7C27.9214 7 27.903 7 27.8847 7C27.8663 7 27.848 7 27.8297 7C27.8115 7 27.7932 7 27.775 7C27.7568 7 27.7386 7 27.7205 7C27.7024 7 27.6842 7 27.6662 7C27.6481 7 27.63 7 27.612 7C27.594 7 27.576 7 27.5581 7C27.5401 7 27.5222 7 27.5043 7C27.4864 7 27.4685 7 27.4507 7C27.4329 7 27.4151 7 27.3973 7C27.3795 7 27.3617 7 27.344 7C27.3263 7 27.3086 7 27.2909 7C27.2733 7 27.2556 7 27.238 7C27.2204 7 27.2028 7 27.1852 7C27.1676 7 27.1501 7 27.1326 7C27.1151 7 27.0976 7 27.0801 7C27.0626 7 27.0452 7 27.0277 7C27.0103 7 26.9929 7 26.9755 7C26.9581 7 26.9408 7 26.9234 7C26.9061 7 26.8888 7 26.8715 7C26.8542 7 26.8369 7 26.8197 7C26.8024 7 26.7852 7 26.7679 7C26.7507 7 26.7335 7 26.7163 7C26.6992 7 26.682 7 26.6648 7C26.6477 7 26.6306 7 26.6134 7C26.5963 7 26.5792 7 26.5622 7C26.5451 7 26.528 7 26.511 7C26.4939 7 26.4769 7 26.4599 7C26.4428 7 26.4258 7 26.4088 7C26.3918 7 26.3749 7 26.3579 7C26.3409 7 26.324 7 26.307 7C26.2901 7 26.2732 7 26.2562 7C26.2393 7 26.2224 7 26.2055 7C26.1886 7 26.1717 7 26.1549 7C26.138 7 26.1211 7 26.1043 7C26.0874 7 26.0706 7 26.0537 7C26.0369 7 26.02 7 26.0032 7C25.9864 7 25.9696 7 25.9528 7C25.936 7 25.9192 7 25.9024 7C25.8856 7 25.8688 7 25.852 7C25.8352 7 25.8184 7 25.8016 7C25.7849 7 25.7681 7 25.7513 7C25.7346 7 25.7178 7 25.701 7C25.6843 7 25.6675 7 25.6508 7C25.634 7 25.6173 7 25.6005 7C25.5837 7 25.567 7 25.5502 7C25.5335 7 25.5168 7 25.5 7C25.4833 7 25.4665 7 25.4498 7C25.433 7 25.4163 7 25.3995 7C25.3827 7 25.366 7 25.3492 7C25.3325 7 25.3157 7 25.299 7C25.2822 7 25.2654 7 25.2487 7C25.2319 7 25.2151 7 25.1984 7C25.1816 7 25.1648 7 25.148 7C25.1312 7 25.1144 7 25.0976 7C25.0808 7 25.064 7 25.0472 7C25.0304 7 25.0136 7 24.9968 7C24.98 7 24.9631 7 24.9463 7C24.9294 7 24.9126 7 24.8957 7C24.8789 7 24.862 7 24.8451 7C24.8283 7 24.8114 7 24.7945 7C24.7776 7 24.7607 7 24.7438 7C24.7268 7 24.7099 7 24.693 7C24.676 7 24.6591 7 24.6421 7C24.6251 7 24.6082 7 24.5912 7C24.5742 7 24.5572 7 24.5401 7C24.5231 7 24.5061 7 24.489 7C24.472 7 24.4549 7 24.4378 7C24.4208 7 24.4037 7 24.3866 7C24.3694 7 24.3523 7 24.3352 7C24.318 7 24.3008 7 24.2837 7C24.2665 7 24.2493 7 24.2321 7C24.2148 7 24.1976 7 24.1803 7C24.1631 7 24.1458 7 24.1285 7C24.1112 7 24.0939 7 24.0766 7C24.0592 7 24.0419 7 24.0245 7C24.0071 7 23.9897 7 23.9723 7C23.9548 7 23.9374 7 23.9199 7C23.9024 7 23.8849 7 23.8674 7C23.8499 7 23.8324 7 23.8148 7C23.7972 7 23.7796 7 23.762 7C23.7444 7 23.7267 7 23.7091 7C23.6914 7 23.6737 7 23.656 7C23.6383 7 23.6205 7 23.6027 7C23.5849 7 23.5671 7 23.5493 7C23.5315 7 23.5136 7 23.4957 7C23.4778 7 23.4599 7 23.4419 7C23.424 7 23.406 7 23.388 7C23.37 7 23.3519 7 23.3338 7C23.3158 7 23.2976 7 23.2795 7C23.2614 7 23.2432 7 23.225 7C23.2068 7 23.1885 7 23.1703 7C23.152 7 23.1337 7 23.1153 7C23.097 7 23.0786 7 23.0602 7C23.0418 7 23.0233 7 23.0049 7C22.9864 7 22.9679 7 22.9493 7C22.9307 7 22.9121 7 22.8935 7C22.8749 7 22.8562 7 22.8375 7C22.8188 7 22.8 7 22.7813 7C22.7625 7 22.7437 7 22.7248 7C22.7059 7 22.687 7 22.6681 7C22.6491 7 22.6301 7 22.6111 7C22.5921 7 22.573 7 22.5539 7C22.5348 7 22.5156 7 22.4964 7C22.4773 7 22.458 7 22.4387 7C22.4194 7 22.4001 7 22.3807 7C22.3614 7 22.342 7 22.3225 7C22.303 7 22.2835 7 22.264 7C22.2444 7 22.2248 7 22.2052 7C22.1855 7 22.1659 7 22.1461 7C22.1264 7 22.1066 7 22.0868 7C22.0669 7 22.047 7 22.0271 7C22.0072 7 21.9872 7 21.9672 7C21.9471 7 21.9271 7 21.9069 7C21.8868 7 21.8666 7 21.8464 7C21.8262 7 21.8059 7 21.7855 7C21.7652 7 21.7448 7 21.7244 7C21.7039 7 21.6834 7 21.6629 7C21.6424 7 21.6218 7 21.6011 7C21.5804 7 21.5597 7 21.539 7C21.5182 7 21.4974 7 21.4765 7C21.4556 7 21.4347 7 21.4137 7C21.3927 7 21.3717 7 21.3506 7C21.3295 7 21.3083 7 21.2871 7C21.2659 7 21.2446 7 21.2233 7C21.202 7 21.1806 7 21.1591 7C21.1377 7 21.1162 7 21.0946 7C21.073 7 21.0514 7 21.0297 7C21.008 7 20.9863 7 20.9645 7C20.9427 7 20.9208 7 20.8988 7C20.8769 7 20.8549 7 20.8328 7C20.8108 7 20.7887 7 20.7665 7C20.7443 7 20.722 7 20.6997 7C20.6774 7 20.655 7 20.6325 7C20.6101 7 20.5876 7 20.565 7C20.5424 7 20.5198 7 20.497 7C20.4743 7 20.4516 7 20.4287 7C20.4059 7 20.3829 7 20.3599 7C20.337 7 20.3139 7 20.2908 7C20.2677 7 20.2445 7 20.2212 7C20.1979 7 20.1746 7 20.1512 7C20.1278 7 20.1043 7 20.0808 7C20.0572 7 20.0336 7 20.0099 7C19.9862 7 19.9625 7 19.9386 7C19.9148 7 19.8909 7 19.8669 7C19.8429 7 19.8189 7 19.7947 7C19.7706 7 19.7464 7 19.7221 7C19.6978 7 19.6735 7 19.649 7C19.6246 7 19.6001 7 19.5755 7C19.5509 7 19.5263 7 19.5015 7C19.4768 7 19.452 7 19.4271 7C19.4022 7 19.3772 7 19.3522 7C19.3271 7 19.302 7 19.2768 7C19.2515 7 19.2263 7 19.2009 7C19.1755 7 19.1501 7 19.1245 7C19.099 7 19.0734 7 19.0477 7C19.022 7 18.9962 7 18.9703 7C18.9445 7 18.9185 7 18.8925 7C18.8665 7 18.8404 7 18.8142 7C18.788 7 18.7617 7 18.7353 7C18.7089 7 18.6825 7 18.656 7C18.6294 7 18.6028 7 18.5761 7C18.5494 7 18.5226 7 18.4957 7C18.4688 7 18.4418 7 18.4148 7C18.3877 7 18.3606 7 18.3333 7C18.3061 7 18.2788 7 18.2514 7C18.2239 7 18.1964 7 18.1688 7C18.1412 7 18.1136 7 18.0858 7C18.058 7 18.0301 7 18.0022 7C17.9742 7 17.9462 7 17.918 7C17.8899 7 17.8616 7 17.8333 7C17.805 7 17.7766 7 17.748 7C17.7195 7 17.6909 7 17.6622 7C17.6335 7 17.6047 7 17.5758 7C17.5469 7 17.5179 7 17.4888 7C17.4597 7 17.4305 7 17.4013 7C17.372 7 17.3426 7 17.3131 7C17.2836 7 17.2541 7 17.2244 7C17.1947 7 17.1649 7 17.1351 7C17.1052 7 17.0752 7 17.0451 7C17.0151 7 16.9849 7 16.9546 7C16.9244 7 16.894 7 16.8635 7C16.833 7 16.8024 7 16.7718 7C16.7411 7 16.7103 7 16.6794 7C16.6485 7 16.6175 7 16.5864 7C16.5554 7 16.5242 7 16.4929 7C16.4616 7 16.4301 7 16.3986 7C16.3671 7 16.3355 7 16.3038 7C16.2721 7 16.2402 7 16.2083 7C16.1764 7 16.1443 7 16.1122 7C16.08 7 16.0478 7 16.0154 7C15.983 7 15.9505 7 15.918 7C15.8854 7 15.8527 7 15.8199 7C15.7871 7 15.7542 7 15.7211 7C15.6881 7 15.655 7 15.6217 7C15.5885 7 15.5551 7 15.5216 7C15.4882 7 15.4546 7 15.4209 7C15.3872 7 15.3534 7 15.3195 7C15.2855 7 15.2515 7 15.2174 7C15.1832 7 15.1489 7 15.1146 7C15.0802 7 15.0457 7 15.0111 7C14.9765 7 14.9417 7 14.9069 7C14.872 7 14.8371 7 14.802 7C14.7669 7 14.7317 7 14.6964 7C14.6611 7 14.6257 7 14.5901 7C14.5546 7 14.5189 7 14.4831 7C14.4473 7 14.4114 7 14.3754 7C14.3393 7 14.3032 7 14.2669 7C14.2306 7 14.1942 7 14.1577 7C14.1212 7 14.0846 7 14.0478 7C14.011 7 13.9742 7 13.9371 7C13.9001 7 13.863 7 13.8258 7C13.7885 7 13.7511 7 13.7136 7C13.6761 7 13.6385 7 13.6007 7C13.563 7 13.5251 7 13.4871 7C13.4491 7 13.4109 7 13.3727 7C13.3344 7 13.296 7 13.2575 7C13.219 7 13.1804 7 13.1416 7C13.1028 7 13.0639 7 13.0249 7C12.9858 7 12.9467 7 12.9074 7C12.8681 7 12.8287 7 12.7891 7C12.7496 7 12.7099 7 12.6701 7C12.6302 7 12.5903 7 12.5502 7C12.5101 7 12.4699 7 12.4296 7C12.3892 7 12.3488 7 12.3081 7C12.2675 7 12.2268 7 12.1859 7C12.145 7 12.104 7 12.0628 7C12.0217 7 11.9804 7 11.939 7C11.8976 7 11.856 7 11.8143 7C11.7726 7 11.7308 7 11.6888 7C11.6468 7 11.6047 7 11.5625 7C11.5202 7 11.4778 7 11.4353 7C11.3928 7 11.3501 7 11.3073 7C11.2645 7 11.2215 7 11.1784 7C11.1354 7 11.0921 7 11.0488 7C11.0054 7 10.9619 7 10.9182 7C10.8746 7 10.8308 7 10.7868 7C10.7429 7 10.6988 7 10.6546 7C10.6103 7 10.566 7 10.5215 7C10.4769 7 10.4323 7 10.3875 7C10.3427 7 10.2977 7 10.2526 7C10.2075 7 10.1623 7 10.1169 7C10.0715 7 10.026 7 9.98029 7C9.9346 7 9.88877 7 9.84279 7C9.79681 7 9.75068 7 9.7044 7C9.65812 7 9.6117 7 9.56512 7C9.51854 7 9.47182 7 9.42494 7C9.37806 7 9.33103 7 9.28385 7C9.23668 7 9.18934 7 9.14186 7C9.09438 7 9.04674 7 8.99895 7C8.95117 7 8.90323 7 8.85513 7C8.80704 7 8.75879 7 8.71039 7C8.66198 7 8.61343 7 8.56471 7C8.516 7 8.46713 7 8.41811 7C8.36909 7 8.31991 7 8.27057 7C8.22124 7 8.17174 7 8.12209 7C8.07244 7 8.02264 7 7.97267 7C7.9227 7 7.87258 7 7.8223 7C7.77201 7 7.72157 7 7.67097 7C7.62037 7 7.56961 7 7.51869 7C7.46777 7 7.41668 7 7.36544 7C7.3142 7 7.26279 7 7.21123 7C7.15966 7 7.10793 7 7.05604 7C7.00415 7 6.9521 7 6.89988 7C6.84766 7 6.79528 7 6.74274 7C6.69019 7 6.63748 7 6.58461 7C6.53174 7 6.4787 7 6.42549 7C6.37229 7 6.31892 7 6.26538 7C6.21185 7 6.15814 7 6.10427 7C6.0504 7 5.99636 7 5.94216 7C5.88795 7 5.83358 7 5.77904 7C5.7245 7 5.66979 7 5.6149 7C5.56002 7 5.50497 7 5.44975 7C5.39453 7 5.33914 7 5.28358 7C5.22802 7 5.17229 7 5.11639 7C5.06048 7 5.00441 7 4.94816 7C4.89191 7 4.83549 7 4.77889 7C4.7223 7 4.66553 7 4.60859 7C4.55165 7 4.49454 7 4.43725 7C4.37996 7 4.32249 7 4.26485 7C4.20721 7 4.1494 7 4.0914 7C4.03341 7 3.97524 7 3.9169 7C3.85855 7 3.80003 7 3.74133 7C3.68263 7 3.62375 7 3.5647 7C3.50564 7 3.44641 7 3.38699 7C3.32758 7 3.26799 7 3.20821 7C3.14844 7 3.08849 7 3.02835 7C2.96822 7 2.9079 7 2.84741 7C2.78691 7 2.72623 7 2.66537 7C2.60451 7 2.54347 7 2.48224 7C2.42102 7 2.35961 7 2.29802 7C2.23643 7 2.17465 7 2.11269 7C2.05073 7 1.98858 7 1.92625 7C1.86392 7 1.80141 7 1.7387 7C1.676 7 1.61312 7 1.55004 7C1.48697 7 1.4237 7 1.36026 7C1.29681 7 1.23317 7 1.16935 7C1.10552 7 1.04151 7 0.977306 7C0.913103 7 0.848712 7 0.784131 7C0.71955 7 0.654779 7 0.589818 7C0.524857 7 0.459705 7 0.394361 7C0.329018 7 0.263483 7 0.197757 7C0.13203 7 0.0661115 7 -8.74228e-08 7L8.74228e-08 9Z" fill="white"/>
</svg>
