<svg width="45" height="82" viewBox="0 0 45 82" fill="none" xmlns="http://www.w3.org/2000/svg">
<path d="M37.7071 81.2071C37.3166 81.5976 36.6834 81.5976 36.2929 81.2071L29.9289 74.8431C29.5384 74.4526 29.5384 73.8195 29.9289 73.4289C30.3195 73.0384 30.9526 73.0384 31.3432 73.4289L37 79.0858L42.6569 73.4289C43.0474 73.0384 43.6806 73.0384 44.0711 73.4289C44.4616 73.8195 44.4616 74.4526 44.0711 74.8431L37.7071 81.2071ZM37 13L38 13L37 13ZM5.84787e-08 0L25 1.45041e-06L25 2L-5.84787e-08 2L5.84787e-08 0ZM38 13L38 80.5L36 80.5L36 13L38 13ZM25 1.45041e-06C32.1797 1.88346e-06 38 5.8203 38 13L36 13C36 6.92487 31.0751 2 25 2L25 1.45041e-06Z" fill="white"/>
</svg>
