<svg width="178" height="63" viewBox="0 0 178 63" fill="none" xmlns="http://www.w3.org/2000/svg">
<path d="M7.2929 62.7071C7.68343 63.0976 8.31659 63.0976 8.70711 62.7071L15.0711 56.3431C15.4616 55.9526 15.4616 55.3195 15.0711 54.9289C14.6805 54.5384 14.0474 54.5384 13.6569 54.9289L8 60.5858L2.34316 54.9289C1.95262 54.5384 1.31946 54.5384 0.928942 54.9289C0.538409 55.3195 0.538409 55.9526 0.928942 56.3431L7.2929 62.7071ZM20 29.931L20 28.931L20 29.931ZM177 0C176 4.37114e-08 176 5.9879e-06 176 1.79749e-05C176 2.99619e-05 176 4.79918e-05 176 7.21631e-05C176 9.63345e-05 176 0.000126647 176 0.0001632C176 0.000199753 176 0.000242546 176 0.000291678C176 0.00034081 176 0.000396281 176 0.000458189C176 0.000520097 176 0.000588443 176 0.000663324C176 0.000738206 176 0.000819624 176 0.000907677C176 0.000995729 176 0.00109042 176 0.00119184C176 0.00129326 176 0.00140141 176 0.0015164C176 0.00163138 176 0.0017532 176 0.00188195C176 0.0020107 176 0.00214638 176 0.00228909C176 0.0024318 176 0.00258154 176 0.0027384C176 0.00289527 176 0.00305926 176 0.00323048C176 0.00340171 176 0.00358015 176 0.00376593C176 0.0039517 176 0.0041448 176 0.00434532C176 0.00454584 176 0.00475379 176 0.00496926C176 0.00518473 176 0.00540772 176 0.00563833C176 0.00586894 176 0.00610718 176 0.00635313C176 0.00659908 176 0.00685276 176 0.00711425C176 0.00737574 176 0.00764505 176 0.00792228C176 0.00819951 176 0.00848466 176 0.00877782C176 0.00907098 176 0.00937216 176 0.00968145C176 0.00999074 176 0.0103081 176 0.0106338C176 0.0109594 176 0.0112932 176 0.0116354C176 0.0119775 176 0.012328 176 0.0126868C176 0.0130457 176 0.013413 176 0.0137888C176 0.0141645 176 0.0145488 176 0.0149417C176 0.0153347 176 0.0157362 176 0.0161464C176 0.0165566 176 0.0169755 176 0.0174033C176 0.017831 176 0.0182675 176 0.018713C176 0.0191584 176 0.0196127 176 0.0200761C176 0.0205394 176 0.0210118 176 0.0214932C176 0.0219747 176 0.0224652 176 0.022965C176 0.0234647 176 0.0239737 176 0.0244919C176 0.0250102 176 0.0255377 176 0.0260746C176 0.0266116 176 0.0271579 176 0.0277138C176 0.0282696 176 0.0288349 176 0.0294098C176 0.0299848 176 0.0305693 176 0.0311635C176 0.0317577 176 0.0323616 176 0.0329753C176 0.033589 176 0.0342125 176 0.0348459C176 0.0354793 176 0.0361225 176 0.0367758C176 0.037429 176 0.0380923 176 0.0387656C176 0.039439 176 0.0401224 176 0.040816C176 0.0415096 176 0.0422134 176 0.0429275C176 0.0436415 176 0.0443659 176 0.0451007C176 0.0458354 176 0.0465805 176 0.0473361C176 0.0480918 176 0.0488579 176 0.0496345C176 0.0504112 176 0.0511985 176 0.0519964C176 0.0527943 176 0.053603 176 0.0544223C176 0.0552417 176 0.0560719 176 0.056913C176 0.057754 176 0.0586059 176 0.0594688C176 0.0603317 176 0.0612056 176 0.0620906C176 0.0629755 176 0.0638715 176 0.0647787C176 0.0656859 176 0.0666043 176 0.067534C176 0.0684636 176 0.0694045 176 0.0703568C176 0.0713091 176 0.0722727 176 0.0732478C176 0.074223 176 0.0752096 176 0.0762077C176 0.0772059 176 0.0782156 176 0.079237C176 0.0802584 176 0.0812914 176 0.0823363C176 0.0833811 176 0.0844377 176 0.0855061C176 0.0865746 176 0.0876549 176 0.0887472C176 0.0898394 176 0.0909437 176 0.09206C176 0.0931763 176 0.0943046 176 0.0954452C176 0.0965857 176 0.0977383 176 0.0989033C176 0.100068 176 0.101245 176 0.102435C176 0.103625 176 0.104826 176 0.106041C176 0.107255 176 0.108482 176 0.109721C176 0.110961 176 0.112213 176 0.113477C176 0.114742 176 0.116019 176 0.117309C176 0.118599 176 0.119902 176 0.121217C176 0.122533 176 0.123861 176 0.125203C176 0.126544 176 0.127898 176 0.129266C176 0.130633 176 0.132014 176 0.133407C176 0.134801 176 0.136207 176 0.137627C176 0.139047 176 0.140481 176 0.141927C176 0.143374 176 0.144834 176 0.146307C176 0.14778 176 0.149267 176 0.150767C176 0.152268 176 0.153781 176 0.155309C176 0.156836 176 0.158378 176 0.159932C176 0.161487 176 0.163056 176 0.164638C176 0.166221 176 0.167817 176 0.169427C176 0.171038 176 0.172662 176 0.1743C176 0.175938 176 0.17759 176 0.179257C176 0.180923 176 0.182603 176 0.184298C176 0.185993 176 0.187702 176 0.189425C176 0.191148 176 0.192886 176 0.194638C176 0.19639 176 0.198156 176 0.199937C176 0.201718 176 0.203514 176 0.205324C176 0.207134 176 0.208959 176 0.210799C176 0.212638 176 0.214492 176 0.216361C176 0.21823 176 0.220114 176 0.222013C176 0.223912 176 0.225825 176 0.227754C176 0.229683 176 0.231627 176 0.233585C176 0.235544 176 0.237518 176 0.239507C176 0.241497 176 0.243501 176 0.245521C176 0.247541 176 0.249576 176 0.251626C176 0.253677 176 0.255742 176 0.257824C176 0.259905 176 0.262002 176 0.264115C176 0.266227 176 0.268355 176 0.270499C176 0.272643 176 0.274802 176 0.276978C176 0.279153 176 0.281344 176 0.283551C176 0.285759 176 0.287982 176 0.290221C176 0.29246 176 0.294715 176 0.296986C176 0.299257 176 0.301544 176 0.303847C176 0.306151 176 0.30847 176 0.310806C176 0.313142 176 0.315494 176 0.317863C176 0.320232 176 0.322617 176 0.325018C176 0.32742 176 0.329838 176 0.332272C176 0.334707 176 0.337158 176 0.339626C176 0.342094 176 0.344579 176 0.34708C176 0.349582 176 0.3521 176 0.354635C176 0.35717 176 0.359722 176 0.362291C176 0.36486 176 0.367446 176 0.370049C176 0.372652 176 0.375272 176 0.37791C176 0.380547 176 0.383202 176 0.385873C176 0.388545 176 0.391234 176 0.393941C176 0.396647 176 0.399371 176 0.402113C176 0.404854 176 0.407613 176 0.410389C176 0.413166 176 0.41596 176 0.418772C176 0.421583 176 0.424413 176 0.42726C176 0.430107 176 0.432972 176 0.435855C176 0.438738 176 0.441639 176 0.444557C176 0.447476 176 0.450413 176 0.453368C176 0.456322 176 0.459295 176 0.462286C176 0.465277 176 0.468286 176 0.471314C176 0.474341 176 0.477387 176 0.480451C176 0.483515 176 0.486598 176 0.489699C176 0.4928 176 0.495919 176 0.499057C176 0.502195 176 0.505352 176 0.508527C176 0.511703 176 0.514897 176 0.518109C176 0.521322 176 0.524553 176 0.527804C176 0.531054 176 0.534323 176 0.537612C176 0.5409 176 0.544207 176 0.547533C176 0.550859 176 0.554205 176 0.557569C176 0.560933 176 0.564317 176 0.56772C176 0.571123 176 0.574545 176 0.577986C176 0.581428 176 0.584889 176 0.588369C176 0.591849 176 0.595349 176 0.598868C176 0.602388 176 0.605927 176 0.609485C176 0.613044 176 0.616622 176 0.62022C176 0.623818 176 0.627436 176 0.631073C176 0.634711 176 0.638368 176 0.642046C176 0.645723 176 0.64942 176 0.653138C176 0.656855 176 0.660592 176 0.66435C176 0.668108 176 0.671885 176 0.675683C176 0.679481 176 0.6833 176 0.687138C176 0.690977 176 0.694836 176 0.698715C176 0.702594 176 0.706494 176 0.710415C176 0.714335 176 0.718276 176 0.722237C176 0.726199 176 0.730181 176 0.734184C176 0.738187 176 0.742211 176 0.746255C176 0.7503 176 0.754365 176 0.758451C176 0.762538 176 0.766645 176 0.770773C176 0.774901 176 0.779051 176 0.783221C176 0.787392 176 0.791583 176 0.795796C176 0.800009 176 0.804243 176 0.808498C176 0.812754 176 0.81703 176 0.821328C176 0.825627 176 0.829946 176 0.834287C176 0.838628 176 0.842991 176 0.847375C176 0.85176 176 0.856166 176 0.860593C176 0.865021 176 0.86947 176 0.873941C176 0.878413 176 0.882906 176 0.887421C176 0.891936 176 0.896472 176 0.901031C176 0.90559 176 0.910171 176 0.914774C176 0.919377 176 0.924002 176 0.92865C176 0.933297 176 0.937967 176 0.942659C176 0.947351 176 0.952065 176 0.956802C176 0.961538 176 0.966297 176 0.971079C176 0.97586 176 0.980665 176 0.985491C176 0.990318 176 0.995167 176 1.00004C176 1.00491 176 1.00981 176 1.01472C176 1.01964 176 1.02458 176 1.02955C176 1.03451 176 1.03949 176 1.0445C176 1.04951 176 1.05455 176 1.0596C176 1.06466 176 1.06973 176 1.07484C176 1.07994 176 1.08506 176 1.09021C176 1.09536 176 1.10053 176 1.10573C176 1.11092 176 1.11614 176 1.12138C176 1.12662 176 1.13189 176 1.13718C176 1.14247 176 1.14778 176 1.15311C176 1.15845 176 1.16381 176 1.16919C176 1.17458 176 1.17999 176 1.18542C176 1.19085 176 1.1963 176 1.20178C176 1.20726 176 1.21277 176 1.21829C176 1.22382 176 1.22937 176 1.23495C176 1.24052 176 1.24612 176 1.25175C176 1.25737 176 1.26302 176 1.26869C176 1.27437 176 1.28006 176 1.28579C176 1.29151 176 1.29725 176 1.30302C176 1.3088 176 1.31459 176 1.32041C176 1.32623 176 1.33208 176 1.33795C176 1.34382 176 1.34971 176 1.35563C176 1.36155 176 1.36749 176 1.37346C176 1.37943 176 1.38543 176 1.39144C176 1.39746 176 1.40351 176 1.40958C176 1.41565 176 1.42174 176 1.42786C176 1.43398 176 1.44013 176 1.4463C176 1.45247 176 1.45866 176 1.46489C176 1.47111 176 1.47735 176 1.48363C176 1.4899 176 1.4962 176 1.50252C176 1.50884 176 1.51519 176 1.52157C176 1.52794 176 1.53435 176 1.54077C176 1.5472 176 1.55365 176 1.56013C176 1.56661 176 1.57311 176 1.57964C176 1.58618 176 1.59273 176 1.59931C176 1.6059 176 1.61251 176 1.61914C176 1.62578 176 1.63244 176 1.63913C176 1.64582 176 1.65253 176 1.65927C176 1.66601 176 1.67278 176 1.67957C176 1.68637 176 1.69319 176 1.70003C176 1.70688 176 1.71376 176 1.72066C176 1.72756 176 1.73448 176 1.74144C176 1.74839 176 1.75537 176 1.76238C176 1.76939 176 1.77642 176 1.78349C176 1.79055 176 1.79764 176 1.80475C176 1.81187 176 1.81901 176 1.82618C176 1.83335 176 1.84055 176 1.84778C176 1.855 176 1.86225 176 1.86953C176 1.87681 176 1.88412 176 1.89146C176 1.89879 176 1.90616 176 1.91355C176 1.92094 176 1.92835 176 1.9358C176 1.94324 176 1.95072 176 1.95822C176 1.96572 176 1.97325 176 1.98081C176 1.98836 176 1.99595 176 2.00356C176 2.01117 176 2.01882 176 2.02648C176 2.03415 176 2.04185 176 2.04958C176 2.0573 176 2.06506 176 2.07284C176 2.08062 176 2.08843 176 2.09627C176 2.10411 176 2.11198 176 2.11987C176 2.12777 176 2.13569 176 2.14364C176 2.1516 176 2.15958 176 2.16759C176 2.1756 176 2.18364 176 2.19171C176 2.19978 176 2.20787 176 2.216C176 2.22412 176 2.23228 176 2.24046C176 2.24865 176 2.25686 176 2.2651C176 2.27334 176 2.28161 176 2.28991C176 2.29821 176 2.30654 176 2.3149C176 2.32326 176 2.33165 176 2.34007C176 2.34848 176 2.35693 176 2.36541C176 2.37388 176 2.38239 176 2.39092C176 2.39946 176 2.40803 176 2.41662C176 2.42522 176 2.43384 176 2.44249C176 2.45115 176 2.45983 176 2.46855C176 2.47726 176 2.48601 176 2.49478C176 2.50355 176 2.51236 176 2.52119C176 2.53003 176 2.53889 176 2.54779C176 2.55668 176 2.5656 176 2.57456C176 2.58351 176 2.5925 176 2.60152C176 2.61053 176 2.61958 176 2.62865C176 2.63773 176 2.64684 176 2.65598C176 2.66511 176 2.67428 176 2.68348C176 2.69268 176 2.70191 176 2.71117C176 2.72043 176 2.72972 176 2.73905C176 2.74837 176 2.75772 176 2.76711C176 2.77649 176 2.78591 176 2.79535C176 2.8048 176 2.81428 176 2.82379C176 2.83329 176 2.84283 176 2.8524C176 2.86198 176 2.87158 176 2.88121C176 2.89085 176 2.90051 176 2.91021C176 2.91991 176 2.92963 176 2.93939C176 2.94915 176 2.95894 176 2.96877C176 2.97859 176 2.98845 176 2.99833C176 3.00822 176 3.01814 176 3.02809C176 3.03804 176 3.04802 176 3.05803C176 3.06805 176 3.0781 176 3.08817C176 3.09825 176 3.10836 176 3.1185C176 3.12865 176 3.13882 176 3.14903C176 3.15924 176 3.16948 176 3.17975C176 3.19002 176 3.20032 176 3.21066C176 3.221 176 3.23136 176 3.24177C176 3.25217 176 3.2626 176 3.27307C176 3.28354 176 3.29404 176 3.30457C176 3.3151 176 3.32567 176 3.33626C176 3.34686 176 3.35749 176 3.36816C176 3.37882 176 3.38952 176 3.40025C176 3.41098 176 3.42174 176 3.43254C176 3.44333 176 3.45416 176 3.46502C176 3.47589 176 3.48678 176 3.49771C176 3.50864 176 3.5196 176 3.5306C176 3.54159 176 3.55262 176 3.56369C176 3.57475 176 3.58585 176 3.59698C176 3.60811 176 3.61927 176 3.63047C176 3.64167 176 3.6529 176 3.66416C176 3.67543 176 3.68673 176 3.69806C176 3.70939 176 3.72076 176 3.73216C176 3.74356 176 3.755 176 3.76647C176 3.77794 176 3.78944 176 3.80098C176 3.81252 176 3.82409 176 3.8357C176 3.8473 176 3.85894 176 3.87062C176 3.88229 176 3.894 176 3.90575C176 3.91749 176 3.92927 176 3.94109C176 3.9529 176 3.96475 176 3.97663C176 3.98851 176 4.00043 176 4.01238C176 4.02433 176 4.03632 176 4.04834C176 4.06037 176 4.07242 176 4.08452C176 4.09661 176 4.10874 176 4.1209C176 4.13306 176 4.14526 176 4.15749C176 4.16972 176 4.18199 176 4.1943C176 4.2066 176 4.21894 176 4.23131C176 4.24369 176 4.2561 176 4.26854C176 4.28099 176 4.29347 176 4.30598C176 4.3185 176 4.33105 176 4.34364C176 4.35623 176 4.36885 176 4.38151C176 4.39417 176 4.40687 176 4.4196C176 4.43233 176 4.44509 176 4.4579C176 4.4707 176 4.48354 176 4.49642C176 4.50929 176 4.5222 176 4.53515C176 4.5481 176 4.56108 176 4.5741C176 4.58712 176 4.60018 176 4.61327C176 4.62636 176 4.63949 176 4.65266C176 4.66582 176 4.67903 176 4.69227C176 4.70551 176 4.71878 176 4.73209C176 4.74541 176 4.75875 176 4.77214C176 4.78553 176 4.79895 176 4.81241C176 4.82587 176 4.83937 176 4.8529C176 4.86643 176 4.88 176 4.89361C176 4.90722 176 4.92086 176 4.93455C176 4.94823 176 4.96195 176 4.9757C176 4.98946 176 5.00325 176 5.01709C176 5.03092 176 5.04479 176 5.05869C176 5.0726 176 5.08654 176 5.10052C176 5.1145 176 5.12852 176 5.14258C176 5.15664 176 5.17073 176 5.18486C176 5.199 176 5.21317 176 5.22737C176 5.24158 176 5.25583 176 5.27011C176 5.2844 176 5.29872 176 5.31308C176 5.32744 176 5.34184 176 5.35627C176 5.37071 176 5.38518 176 5.3997C176 5.41421 176 5.42876 176 5.44335C176 5.45794 176 5.47257 176 5.48723C176 5.5019 176 5.5166 176 5.53135C176 5.54609 176 5.56087 176 5.57569C176 5.59051 176 5.60537 176 5.62027C176 5.63517 176 5.65011 176 5.66508C176 5.68006 176 5.69507 176 5.71013C176 5.72518 176 5.74027 176 5.75541C176 5.77054 176 5.78571 176 5.80092C176 5.81613 176 5.83138 176 5.84667C176 5.86196 176 5.87729 176 5.89265C176 5.90802 176 5.92343 176 5.93887C176 5.95432 176 5.9698 176 5.98533C176 6.00086 176 6.01642 176 6.03202C176 6.04763 176 6.06327 176 6.07896C176 6.09464 176 6.11037 176 6.12613C176 6.14189 176 6.1577 176 6.17354C176 6.18938 176 6.20527 176 6.22119C176 6.23711 176 6.25308 176 6.26908C176 6.28509 176 6.30113 176 6.31721C176 6.3333 176 6.34942 176 6.36559C176 6.38175 176 6.39796 176 6.4142C176 6.43045 176 6.44674 176 6.46306C176 6.47939 176 6.49576 176 6.51217C176 6.52857 176 6.54502 176 6.56151C176 6.578 176 6.59453 176 6.6111C176 6.62768 176 6.64429 176 6.66094C176 6.67759 176 6.69429 176 6.71102C176 6.72776 176 6.74453 176 6.76135C176 6.77817 176 6.79503 176 6.81193C176 6.82883 176 6.84577 176 6.86275C176 6.87973 176 6.89676 176 6.91382C176 6.93089 176 6.94799 176 6.96514C176 6.98229 176 6.99948 176 7.01671C176 7.03394 176 7.05121 176 7.06853C176 7.08584 176 7.1032 176 7.1206C176 7.138 176 7.15544 176 7.17292C176 7.1904 176 7.20793 176 7.22549C176 7.24306 176 7.26067 176 7.27832C176 7.29597 176 7.31366 176 7.33139C176 7.34913 176 7.36691 176 7.38473C176 7.40255 176 7.42041 176 7.43831C176 7.45622 176 7.47416 176 7.49215C176 7.51014 176 7.52817 176 7.54625C176 7.56432 176 7.58244 176 7.6006C176 7.61876 176 7.63696 176 7.65521C176 7.67345 176 7.69174 176 7.71007C176 7.7284 176 7.74678 176 7.76519C176 7.78361 176 7.80207 176 7.82057C176 7.83908 176 7.85762 176 7.87621C176 7.8948 176 7.91343 176 7.93211C176 7.95079 176 7.96951 176 7.98827C176 8.00703 176 8.02584 176 8.04469C176 8.06354 176 8.08243 176 8.10137C176 8.12031 176 8.13929 176 8.15831C176 8.17734 176 8.1964 176 8.21552C176 8.23463 176 8.25378 176 8.27298C176 8.29218 176 8.31143 176 8.33072C176 8.35 176 8.36933 176 8.38871C176 8.40809 176 8.42751 176 8.44697C176 8.46643 176 8.48594 176 8.5055C176 8.52505 176 8.54465 176 8.56429C176 8.58393 176 8.60361 176 8.62334C176 8.64308 176 8.66285 176 8.68267C176 8.70249 176 8.72235 176 8.74226C176 8.76217 176 8.78212 176 8.80212C176 8.82212 176 8.84216 176 8.86225C176 8.88234 176 8.90247 176 8.92265C176 8.94283 176 8.96305 176 8.98332C176 9.00359 176 9.0239 176 9.04426C176 9.06462 176 9.08502 176 9.10547C176 9.12592 176 9.14642 176 9.16696C176 9.1875 176 9.20808 176 9.22871C176 9.24934 176 9.27002 176 9.29074C176 9.31146 176 9.33223 176 9.35304C176 9.37385 176 9.39471 176 9.41562C176 9.43652 176 9.45747 176 9.47847C176 9.49947 176 9.52051 176 9.5416C176 9.56268 176 9.58382 176 9.605C176 9.62618 176 9.6474 176 9.66868C176 9.68995 176 9.71127 176 9.73263C176 9.754 176 9.77541 176 9.79687C176 9.81832 176 9.83983 176 9.86138C176 9.88293 176 9.90453 176 9.92617C176 9.94781 176 9.9695 176 9.99124C176 10.013 176 10.0348 176 10.0566C176 10.0784 176 10.1003 176 10.1222C176 10.1441 176 10.1661 176 10.1881C176 10.2102 176 10.2322 176 10.2543C176 10.2764 176 10.2986 176 10.3208C176 10.343 176 10.3653 176 10.3876C176 10.4099 176 10.4322 176 10.4546C176 10.477 176 10.4995 176 10.5219C176 10.5444 176 10.567 176 10.5896C176 10.6121 176 10.6348 176 10.6575C176 10.6801 176 10.7029 176 10.7256C176 10.7484 176 10.7712 176 10.7941C176 10.817 176 10.8399 176 10.8629C176 10.8858 176 10.9089 176 10.9319C176 10.955 176 10.9781 176 11.0012C176 11.0244 176 11.0476 176 11.0709C176 11.0941 176 11.1174 176 11.1408C176 11.1641 176 11.1875 176 11.211C176 11.2344 176 11.2579 176 11.2815C176 11.305 176 11.3286 176 11.3523C176 11.3759 176 11.3996 176 11.4233C176 11.4471 176 11.4709 176 11.4947C176 11.5186 176 11.5424 176 11.5664C176 11.5903 176 11.6143 176 11.6383C176 11.6624 176 11.6865 176 11.7106C176 11.7347 176 11.7589 176 11.7831C176 11.8074 176 11.8316 176 11.856C176 11.8803 176 11.9047 176 11.9291C176 11.9535 176 11.978 176 12.0026C176 12.0271 176 12.0517 176 12.0763C176 12.1009 176 12.1256 176 12.1503C176 12.175 176 12.1998 176 12.2246C176 12.2495 176 12.2743 176 12.2993C176 12.3242 176 12.3492 176 12.3742C176 12.3992 176 12.4243 176 12.4494C176 12.4746 176 12.4997 176 12.525C176 12.5502 176 12.5755 176 12.6008C176 12.6261 176 12.6515 176 12.6769C176 12.7023 176 12.7278 176 12.7533C176 12.7789 176 12.8045 176 12.8301C176 12.8557 176 12.8814 176 12.9071C176 12.9329 176 12.9586 176 12.9845C176 13.0103 176 13.0362 176 13.0621C176 13.0881 176 13.114 176 13.1401C176 13.1661 176 13.1922 176 13.2183C176 13.2445 176 13.2707 176 13.2969C176 13.3232 176 13.3494 176 13.3758C176 13.4021 176 13.4285 176 13.455C176 13.4814 176 13.5079 176 13.5345C176 13.561 176 13.5876 176 13.6143C176 13.6409 176 13.6676 176 13.6944C176 13.7211 176 13.7479 176 13.7748C176 13.8017 176 13.8286 176 13.8555C176 13.8825 176 13.9095 176 13.9366C176 13.9636 176 13.9908 176 14.0179C176 14.0451 176 14.0723 176 14.0996C176 14.1269 176 14.1542 176 14.1816C176 14.209 176 14.2364 176 14.2639C176 14.2914 176 14.3189 176 14.3465C176 14.3741 176 14.4017 176 14.4294C176 14.4571 176 14.4849 176 14.5127C176 14.5405 176 14.5683 176 14.5962C176 14.6241 176 14.6521 176 14.6801C176 14.7081 176 14.7362 176 14.7643C176 14.7924 176 14.8206 176 14.8488C176 14.877 176 14.9053 176 14.9336C176 14.962 176 14.9903 176 15.0188C176 15.0472 176 15.0757 176 15.1042C176 15.1328 176 15.1614 176 15.19C176 15.2187 176 15.2474 176 15.2761C176 15.3049 176 15.3337 176 15.3626C176 15.3914 176 15.4204 176 15.4493C176 15.4783 176 15.5073 176 15.5364C176 15.5655 176 15.5946 176 15.6238C176 15.653 176 15.6822 176 15.7115C176 15.7408 176 15.7702 176 15.7996C176 15.829 176 15.8584 176 15.8879C176 15.9175 176 15.947 176 15.9766C176 16.0063 176 16.0359 176 16.0657C176 16.0954 176 16.1252 176 16.155C176 16.1849 176 16.2147 176 16.2447C176 16.2746 176 16.3046 176 16.3347C176 16.3648 176 16.3949 176 16.425C176 16.4552 176 16.4854 176 16.5157C176 16.546 176 16.5763 176 16.6067C176 16.6371 176 16.6675 176 16.698C176 16.7285 176 16.7591 176 16.7897C176 16.8203 176 16.8509 176 16.8817C176 16.9124 176 16.9432 176 16.974C176 17.0048 176 17.0357 176 17.0666C176 17.0976 176 17.1286 176 17.1596C176 17.1907 176 17.2218 176 17.2529C176 17.2841 176 17.3153 176 17.3466C176 17.3779 176 17.4092 176 17.4406C176 17.472 176 17.5034 176 17.5349C176 17.5664 176 17.598 176 17.6296C176 17.6612 176 17.6929 176 17.7246C176 17.7563 176 17.7881 176 17.8199C176 17.8517 176 17.8836 176 17.9156L178 17.9156C178 17.8836 178 17.8517 178 17.8199C178 17.7881 178 17.7563 178 17.7246C178 17.6929 178 17.6612 178 17.6296C178 17.598 178 17.5664 178 17.5349C178 17.5034 178 17.472 178 17.4406C178 17.4092 178 17.3779 178 17.3466C178 17.3153 178 17.2841 178 17.2529C178 17.2218 178 17.1907 178 17.1596C178 17.1286 178 17.0976 178 17.0666C178 17.0357 178 17.0048 178 16.974C178 16.9432 178 16.9124 178 16.8817C178 16.8509 178 16.8203 178 16.7897C178 16.7591 178 16.7285 178 16.698C178 16.6675 178 16.6371 178 16.6067C178 16.5763 178 16.546 178 16.5157C178 16.4854 178 16.4552 178 16.425C178 16.3949 178 16.3648 178 16.3347C178 16.3046 178 16.2746 178 16.2447C178 16.2147 178 16.1849 178 16.155C178 16.1252 178 16.0954 178 16.0657C178 16.0359 178 16.0063 178 15.9766C178 15.947 178 15.9175 178 15.8879C178 15.8584 178 15.829 178 15.7996C178 15.7702 178 15.7408 178 15.7115C178 15.6822 178 15.653 178 15.6238C178 15.5946 178 15.5655 178 15.5364C178 15.5073 178 15.4783 178 15.4493C178 15.4204 178 15.3914 178 15.3626C178 15.3337 178 15.3049 178 15.2761C178 15.2474 178 15.2187 178 15.19C178 15.1614 178 15.1328 178 15.1042C178 15.0757 178 15.0472 178 15.0188C178 14.9903 178 14.962 178 14.9336C178 14.9053 178 14.877 178 14.8488C178 14.8206 178 14.7924 178 14.7643C178 14.7362 178 14.7081 178 14.6801C178 14.6521 178 14.6241 178 14.5962C178 14.5683 178 14.5405 178 14.5127C178 14.4849 178 14.4571 178 14.4294C178 14.4017 178 14.3741 178 14.3465C178 14.3189 178 14.2914 178 14.2639C178 14.2364 178 14.209 178 14.1816C178 14.1542 178 14.1269 178 14.0996C178 14.0723 178 14.0451 178 14.0179C178 13.9908 178 13.9636 178 13.9366C178 13.9095 178 13.8825 178 13.8555C178 13.8286 178 13.8017 178 13.7748C178 13.7479 178 13.7211 178 13.6944C178 13.6676 178 13.6409 178 13.6143C178 13.5876 178 13.561 178 13.5345C178 13.5079 178 13.4814 178 13.455C178 13.4285 178 13.4021 178 13.3758C178 13.3494 178 13.3232 178 13.2969C178 13.2707 178 13.2445 178 13.2183C178 13.1922 178 13.1661 178 13.1401C178 13.114 178 13.0881 178 13.0621C178 13.0362 178 13.0103 178 12.9845C178 12.9586 178 12.9329 178 12.9071C178 12.8814 178 12.8557 178 12.8301C178 12.8045 178 12.7789 178 12.7533C178 12.7278 178 12.7023 178 12.6769C178 12.6515 178 12.6261 178 12.6008C178 12.5755 178 12.5502 178 12.525C178 12.4997 178 12.4746 178 12.4494C178 12.4243 178 12.3992 178 12.3742C178 12.3492 178 12.3242 178 12.2993C178 12.2743 178 12.2495 178 12.2246C178 12.1998 178 12.175 178 12.1503C178 12.1256 178 12.1009 178 12.0763C178 12.0517 178 12.0271 178 12.0026C178 11.978 178 11.9535 178 11.9291C178 11.9047 178 11.8803 178 11.856C178 11.8316 178 11.8074 178 11.7831C178 11.7589 178 11.7347 178 11.7106C178 11.6865 178 11.6624 178 11.6383C178 11.6143 178 11.5903 178 11.5664C178 11.5424 178 11.5186 178 11.4947C178 11.4709 178 11.4471 178 11.4233C178 11.3996 178 11.3759 178 11.3523C178 11.3286 178 11.305 178 11.2815C178 11.2579 178 11.2344 178 11.211C178 11.1875 178 11.1641 178 11.1408C178 11.1174 178 11.0941 178 11.0709C178 11.0476 178 11.0244 178 11.0012C178 10.9781 178 10.955 178 10.9319C178 10.9089 178 10.8858 178 10.8629C178 10.8399 178 10.817 178 10.7941C178 10.7712 178 10.7484 178 10.7256C178 10.7029 178 10.6801 178 10.6575C178 10.6348 178 10.6121 178 10.5896C178 10.567 178 10.5444 178 10.5219C178 10.4995 178 10.477 178 10.4546C178 10.4322 178 10.4099 178 10.3876C178 10.3653 178 10.343 178 10.3208C178 10.2986 178 10.2764 178 10.2543C178 10.2322 178 10.2102 178 10.1881C178 10.1661 178 10.1441 178 10.1222C178 10.1003 178 10.0784 178 10.0566C178 10.0348 178 10.013 178 9.99124C178 9.9695 178 9.94781 178 9.92617C178 9.90453 178 9.88293 178 9.86138C178 9.83983 178 9.81832 178 9.79687C178 9.77541 178 9.754 178 9.73263C178 9.71127 178 9.68995 178 9.66868C178 9.6474 178 9.62618 178 9.605C178 9.58382 178 9.56268 178 9.5416C178 9.52051 178 9.49946 178 9.47847C178 9.45747 178 9.43652 178 9.41562C178 9.39471 178 9.37385 178 9.35304C178 9.33223 178 9.31146 178 9.29074C178 9.27002 178 9.24934 178 9.22871C178 9.20808 178 9.1875 178 9.16695C178 9.14642 178 9.12592 178 9.10547C178 9.08502 178 9.06462 178 9.04426C178 9.0239 178 9.00359 178 8.98332C178 8.96305 178 8.94283 178 8.92265C178 8.90247 178 8.88234 178 8.86225C178 8.84216 178 8.82212 178 8.80212C178 8.78212 178 8.76217 178 8.74226C178 8.72235 178 8.70249 178 8.68267C178 8.66285 178 8.64307 178 8.62334C178 8.60361 178 8.58393 178 8.56429C178 8.54465 178 8.52505 178 8.5055C178 8.48594 178 8.46643 178 8.44697C178 8.42751 178 8.40809 178 8.38871C178 8.36933 178 8.35 178 8.33072C178 8.31143 178 8.29218 178 8.27298C178 8.25378 178 8.23463 178 8.21552C178 8.1964 178 8.17734 178 8.15831C178 8.13929 178 8.12031 178 8.10137C178 8.08243 178 8.06354 178 8.04469C178 8.02584 178 8.00703 178 7.98827C178 7.96951 178 7.95079 178 7.93211C178 7.91343 178 7.8948 178 7.87621C178 7.85762 178 7.83908 178 7.82057C178 7.80207 178 7.78361 178 7.76519C178 7.74678 178 7.7284 178 7.71007C178 7.69174 178 7.67345 178 7.65521C178 7.63696 178 7.61876 178 7.6006C178 7.58244 178 7.56432 178 7.54625C178 7.52817 178 7.51014 178 7.49215C178 7.47416 178 7.45622 178 7.43831C178 7.42041 178 7.40254 178 7.38473C178 7.36691 178 7.34913 178 7.33139C178 7.31366 178 7.29597 178 7.27832C178 7.26067 178 7.24306 178 7.22549C178 7.20793 178 7.1904 178 7.17292C178 7.15544 178 7.138 178 7.1206C178 7.1032 178 7.08584 178 7.06853C178 7.05121 178 7.03394 178 7.01671C178 6.99948 178 6.98229 178 6.96514C178 6.94799 178 6.93089 178 6.91382C178 6.89676 178 6.87973 178 6.86275C178 6.84577 178 6.82883 178 6.81193C178 6.79503 178 6.77817 178 6.76135C178 6.74453 178 6.72776 178 6.71102C178 6.69429 178 6.67759 178 6.66094C178 6.64429 178 6.62768 178 6.6111C178 6.59453 178 6.578 178 6.56151C178 6.54502 178 6.52857 178 6.51217C178 6.49576 178 6.47939 178 6.46306C178 6.44674 178 6.43045 178 6.4142C178 6.39796 178 6.38175 178 6.36559C178 6.34942 178 6.3333 178 6.31721C178 6.30113 178 6.28509 178 6.26908C178 6.25308 178 6.23711 178 6.22119C178 6.20527 178 6.18938 178 6.17354C178 6.1577 178 6.14189 178 6.12613C178 6.11037 178 6.09464 178 6.07896C178 6.06327 178 6.04763 178 6.03202C178 6.01642 178 6.00086 178 5.98533C178 5.9698 178 5.95432 178 5.93887C178 5.92343 178 5.90802 178 5.89265C178 5.87728 178 5.86196 178 5.84667C178 5.83138 178 5.81613 178 5.80092C178 5.78571 178 5.77054 178 5.75541C178 5.74027 178 5.72518 178 5.71013C178 5.69507 178 5.68006 178 5.66508C178 5.65011 178 5.63517 178 5.62027C178 5.60537 178 5.59051 178 5.57569C178 5.56087 178 5.54609 178 5.53135C178 5.5166 178 5.5019 178 5.48723C178 5.47257 178 5.45794 178 5.44335C178 5.42876 178 5.41421 178 5.3997C178 5.38518 178 5.37071 178 5.35627C178 5.34184 178 5.32744 178 5.31308C178 5.29872 178 5.2844 178 5.27011C178 5.25583 178 5.24158 178 5.22737C178 5.21317 178 5.199 178 5.18486C178 5.17073 178 5.15664 178 5.14258C178 5.12852 178 5.1145 178 5.10052C178 5.08654 178 5.0726 178 5.05869C178 5.04479 178 5.03092 178 5.01709C178 5.00325 178 4.98946 178 4.9757C178 4.96195 178 4.94823 178 4.93455C178 4.92086 178 4.90722 178 4.89361C178 4.88 178 4.86643 178 4.8529C178 4.83936 178 4.82587 178 4.81241C178 4.79895 178 4.78553 178 4.77214C178 4.75875 178 4.74541 178 4.73209C178 4.71878 178 4.70551 178 4.69227C178 4.67903 178 4.66582 178 4.65266C178 4.63949 178 4.62636 178 4.61327C178 4.60018 178 4.58712 178 4.5741C178 4.56108 178 4.5481 178 4.53515C178 4.5222 178 4.50929 178 4.49642C178 4.48354 178 4.4707 178 4.4579C178 4.44509 178 4.43233 178 4.4196C178 4.40687 178 4.39417 178 4.38151C178 4.36885 178 4.35623 178 4.34364C178 4.33105 178 4.3185 178 4.30598C178 4.29347 178 4.28099 178 4.26854C178 4.2561 178 4.24369 178 4.23131C178 4.21894 178 4.2066 178 4.1943C178 4.18199 178 4.16972 178 4.15749C178 4.14526 178 4.13306 178 4.1209C178 4.10874 178 4.09661 178 4.08452C178 4.07242 178 4.06037 178 4.04834C178 4.03632 178 4.02433 178 4.01238C178 4.00043 178 3.98851 178 3.97663C178 3.96475 178 3.9529 178 3.94109C178 3.92927 178 3.91749 178 3.90575C178 3.894 178 3.88229 178 3.87062C178 3.85894 178 3.8473 178 3.8357C178 3.82409 178 3.81252 178 3.80098C178 3.78944 178 3.77794 178 3.76647C178 3.755 178 3.74356 178 3.73216C178 3.72076 178 3.70939 178 3.69806C178 3.68673 178 3.67543 178 3.66416C178 3.6529 178 3.64167 178 3.63047C178 3.61927 178 3.60811 178 3.59698C178 3.58585 178 3.57475 178 3.56369C178 3.55262 178 3.54159 178 3.5306C178 3.5196 178 3.50864 178 3.49771C178 3.48678 178 3.47589 178 3.46502C178 3.45416 178 3.44333 178 3.43254C178 3.42174 178 3.41098 178 3.40025C178 3.38952 178 3.37882 178 3.36816C178 3.35749 178 3.34686 178 3.33626C178 3.32566 178 3.3151 178 3.30457C178 3.29404 178 3.28354 178 3.27307C178 3.2626 178 3.25217 178 3.24177C178 3.23136 178 3.221 178 3.21066C178 3.20032 178 3.19002 178 3.17975C178 3.16948 178 3.15924 178 3.14903C178 3.13882 178 3.12865 178 3.1185C178 3.10836 178 3.09825 178 3.08817C178 3.07809 178 3.06805 178 3.05803C178 3.04802 178 3.03804 178 3.02809C178 3.01814 178 3.00822 178 2.99833C178 2.98845 178 2.97859 178 2.96877C178 2.95894 178 2.94915 178 2.93939C178 2.92963 178 2.91991 178 2.91021C178 2.90051 178 2.89085 178 2.88121C178 2.87158 178 2.86198 178 2.8524C178 2.84283 178 2.83329 178 2.82379C178 2.81428 178 2.8048 178 2.79535C178 2.78591 178 2.77649 178 2.76711C178 2.75772 178 2.74837 178 2.73905C178 2.72972 178 2.72043 178 2.71117C178 2.70191 178 2.69268 178 2.68348C178 2.67428 178 2.66511 178 2.65598C178 2.64684 178 2.63773 178 2.62865C178 2.61958 178 2.61053 178 2.60152C178 2.5925 178 2.58351 178 2.57456C178 2.5656 178 2.55668 178 2.54779C178 2.53889 178 2.53003 178 2.52119C178 2.51236 178 2.50355 178 2.49478C178 2.48601 178 2.47726 178 2.46855C178 2.45983 178 2.45115 178 2.44249C178 2.43384 178 2.42521 178 2.41662C178 2.40802 178 2.39946 178 2.39092C178 2.38239 178 2.37388 178 2.36541C178 2.35693 178 2.34848 178 2.34007C178 2.33165 178 2.32326 178 2.3149C178 2.30654 178 2.29821 178 2.28991C178 2.28161 178 2.27334 178 2.2651C178 2.25686 178 2.24865 178 2.24046C178 2.23228 178 2.22412 178 2.216C178 2.20787 178 2.19977 178 2.19171C178 2.18364 178 2.1756 178 2.16759C178 2.15958 178 2.1516 178 2.14364C178 2.13569 178 2.12777 178 2.11987C178 2.11198 178 2.10411 178 2.09627C178 2.08843 178 2.08062 178 2.07284C178 2.06506 178 2.0573 178 2.04958C178 2.04185 178 2.03415 178 2.02648C178 2.01881 178 2.01117 178 2.00356C178 1.99595 178 1.98836 178 1.98081C178 1.97325 178 1.96572 178 1.95822C178 1.95072 178 1.94324 178 1.9358C178 1.92835 178 1.92094 178 1.91355C178 1.90615 178 1.89879 178 1.89146C178 1.88412 178 1.87681 178 1.86953C178 1.86225 178 1.855 178 1.84778C178 1.84055 178 1.83335 178 1.82618C178 1.81901 178 1.81187 178 1.80475C178 1.79764 178 1.79055 178 1.78349C178 1.77642 178 1.76939 178 1.76238C178 1.75537 178 1.74839 178 1.74144C178 1.73448 178 1.72756 178 1.72066C178 1.71376 178 1.70688 178 1.70003C178 1.69319 178 1.68637 178 1.67957C178 1.67278 178 1.66601 178 1.65927C178 1.65253 178 1.64582 178 1.63913C178 1.63244 178 1.62578 178 1.61914C178 1.61251 178 1.6059 178 1.59931C178 1.59273 178 1.58618 178 1.57964C178 1.57311 178 1.56661 178 1.56013C178 1.55365 178 1.5472 178 1.54077C178 1.53434 178 1.52794 178 1.52157C178 1.51519 178 1.50884 178 1.50252C178 1.4962 178 1.4899 178 1.48363C178 1.47735 178 1.47111 178 1.46489C178 1.45866 178 1.45247 178 1.4463C178 1.44013 178 1.43398 178 1.42786C178 1.42174 178 1.41565 178 1.40958C178 1.40351 178 1.39746 178 1.39144C178 1.38542 178 1.37943 178 1.37346C178 1.36749 178 1.36155 178 1.35563C178 1.34971 178 1.34382 178 1.33795C178 1.33208 178 1.32623 178 1.32041C178 1.31459 178 1.3088 178 1.30302C178 1.29725 178 1.29151 178 1.28579C178 1.28006 178 1.27437 178 1.26869C178 1.26302 178 1.25737 178 1.25175C178 1.24612 178 1.24052 178 1.23495C178 1.22937 178 1.22382 178 1.21829C178 1.21277 178 1.20726 178 1.20178C178 1.1963 178 1.19085 178 1.18542C178 1.17999 178 1.17458 178 1.16919C178 1.16381 178 1.15845 178 1.15311C178 1.14778 178 1.14247 178 1.13718C178 1.13189 178 1.12662 178 1.12138C178 1.11614 178 1.11092 178 1.10573C178 1.10053 178 1.09536 178 1.09021C178 1.08506 178 1.07994 178 1.07484C178 1.06973 178 1.06466 178 1.0596C178 1.05455 178 1.04951 178 1.0445C178 1.03949 178 1.03451 178 1.02955C178 1.02458 178 1.01964 178 1.01472C178 1.00981 178 1.00491 178 1.00004C178 0.995167 178 0.990318 178 0.985491C178 0.980665 178 0.97586 178 0.971079C178 0.966297 178 0.961538 178 0.956801C178 0.952065 178 0.947351 178 0.942659C178 0.937967 178 0.933297 178 0.92865C178 0.924002 178 0.919377 178 0.914774C178 0.910171 178 0.90559 178 0.901031C178 0.896472 178 0.891935 178 0.88742C178 0.882905 178 0.878413 178 0.873941C178 0.86947 178 0.865021 178 0.860593C178 0.856165 178 0.85176 178 0.847375C178 0.842991 178 0.838628 178 0.834287C178 0.829946 178 0.825627 178 0.821328C178 0.81703 178 0.812754 178 0.808498C178 0.804243 178 0.800009 178 0.795796C178 0.791583 178 0.787391 178 0.783221C178 0.779051 178 0.774901 178 0.770773C178 0.766645 178 0.762537 178 0.758451C178 0.754365 178 0.7503 178 0.746255C178 0.74221 178 0.738187 178 0.734184C178 0.730181 178 0.726199 178 0.722237C178 0.718276 178 0.714335 178 0.710414C178 0.706494 178 0.702594 178 0.698715C178 0.694835 178 0.690977 178 0.687138C178 0.683299 178 0.679481 178 0.675683C178 0.671885 178 0.668108 178 0.66435C178 0.660592 178 0.656855 178 0.653138C178 0.64942 178 0.645723 178 0.642045C178 0.638368 178 0.634711 178 0.631073C178 0.627436 178 0.623818 178 0.62022C178 0.616622 178 0.613044 178 0.609485C178 0.605927 178 0.602388 178 0.598868C178 0.595349 178 0.591849 178 0.588369C178 0.584889 178 0.581428 178 0.577986C178 0.574545 178 0.571123 178 0.56772C178 0.564317 178 0.560933 178 0.557569C178 0.554204 178 0.550859 178 0.547533C178 0.544207 178 0.5409 178 0.537611C178 0.534323 178 0.531054 178 0.527804C178 0.524553 178 0.521322 178 0.518109C178 0.514896 178 0.511703 178 0.508527C178 0.505352 178 0.502195 178 0.499057C178 0.495919 178 0.4928 178 0.489699C178 0.486598 178 0.483515 178 0.480451C178 0.477387 178 0.474341 178 0.471314C178 0.468286 178 0.465277 178 0.462286C178 0.459295 178 0.456322 178 0.453367C178 0.450413 178 0.447476 178 0.444557C178 0.441639 178 0.438738 178 0.435855C178 0.432972 178 0.430107 178 0.42726C178 0.424413 178 0.421583 178 0.418772C178 0.41596 178 0.413166 178 0.410389C178 0.407613 178 0.404854 178 0.402113C178 0.399371 178 0.396647 178 0.393941C178 0.391234 178 0.388545 178 0.385873C178 0.383201 178 0.380547 178 0.37791C178 0.375272 178 0.372652 178 0.370049C178 0.367446 178 0.36486 178 0.362291C178 0.359722 178 0.35717 178 0.354635C178 0.3521 178 0.349581 178 0.34708C178 0.344579 178 0.342094 178 0.339626C178 0.337158 178 0.334707 178 0.332272C178 0.329838 178 0.32742 178 0.325018C178 0.322617 178 0.320232 178 0.317863C178 0.315494 178 0.313142 178 0.310806C178 0.30847 178 0.306151 178 0.303847C178 0.301544 178 0.299257 178 0.296986C178 0.294714 178 0.292459 178 0.29022C178 0.287981 178 0.285758 178 0.283551C178 0.281344 178 0.279153 178 0.276978C178 0.274802 178 0.272643 178 0.270499C178 0.268355 178 0.266227 178 0.264115C178 0.262002 178 0.259905 178 0.257824C178 0.255742 178 0.253676 178 0.251626C178 0.249576 178 0.24754 178 0.245521C178 0.243501 178 0.241497 178 0.239507C178 0.237518 178 0.235544 178 0.233585C178 0.231626 178 0.229683 178 0.227754C178 0.225825 178 0.223912 178 0.222013C178 0.220114 178 0.21823 178 0.216361C178 0.214492 178 0.212638 178 0.210798C178 0.208959 178 0.207134 178 0.205324C178 0.203514 178 0.201718 178 0.199937C178 0.198156 178 0.19639 178 0.194638C178 0.192886 178 0.191148 178 0.189425C178 0.187702 178 0.185993 178 0.184298C178 0.182603 178 0.180923 178 0.179257C178 0.17759 178 0.175938 178 0.1743C178 0.172662 178 0.171037 178 0.169427C178 0.167817 178 0.166221 178 0.164638C178 0.163056 178 0.161487 178 0.159932C178 0.158377 178 0.156836 178 0.155309C178 0.153781 178 0.152268 178 0.150767C178 0.149267 178 0.14778 178 0.146307C178 0.144833 178 0.143374 178 0.141927C178 0.14048 178 0.139047 178 0.137627C178 0.136207 178 0.134801 178 0.133407C178 0.132013 178 0.130633 178 0.129266C178 0.127898 178 0.126544 178 0.125203C178 0.123861 178 0.122533 178 0.121217C178 0.119902 178 0.118599 178 0.117309C178 0.116019 178 0.114742 178 0.113477C178 0.112213 178 0.110961 178 0.109721C178 0.108482 178 0.107255 178 0.106041C178 0.104826 178 0.103624 178 0.102435C178 0.101245 178 0.100068 178 0.0989032C178 0.0977383 178 0.0965856 178 0.0954451C178 0.0943045 178 0.0931762 178 0.0920599C178 0.0909436 178 0.0898394 178 0.0887471C178 0.0876548 178 0.0865745 178 0.085506C178 0.0844376 178 0.083381 178 0.0823362C178 0.0812914 178 0.0802583 178 0.0792369C178 0.0782155 178 0.0772058 178 0.0762076C178 0.0752095 178 0.0742229 178 0.0732478C178 0.0722726 178 0.071309 178 0.0703567C178 0.0694044 178 0.0684635 178 0.0675339C178 0.0666042 178 0.0656859 178 0.0647786C178 0.0638715 178 0.0629754 178 0.0620905C178 0.0612055 178 0.0603317 178 0.0594688C178 0.0586058 178 0.0577539 178 0.0569129C178 0.0560718 178 0.0552417 178 0.0544223C178 0.0536029 178 0.0527942 178 0.0519963C178 0.0511984 178 0.0504111 178 0.0496344C178 0.0488578 178 0.0480917 178 0.0473361C178 0.0465804 178 0.0458353 178 0.0451006C178 0.0443658 178 0.0436415 178 0.0429274C178 0.0422133 178 0.0415095 178 0.0408159C178 0.0401223 178 0.0394389 178 0.0387655C178 0.0380922 178 0.037429 178 0.0367757C178 0.0361224 178 0.0354792 178 0.0348458C178 0.0342124 178 0.0335889 178 0.0329752C178 0.0323615 178 0.0317576 178 0.0311634C178 0.0305692 178 0.0299847 178 0.0294098C178 0.0288348 178 0.0282695 178 0.0277137C178 0.0271578 178 0.0266115 178 0.0260746C178 0.0255376 178 0.0250101 178 0.0244918C178 0.0239736 178 0.0234646 178 0.0229649C178 0.0224651 178 0.0219746 178 0.0214931C178 0.0210117 178 0.0205393 178 0.020076C178 0.0196126 178 0.0191583 178 0.0187129C178 0.0182674 178 0.0178309 178 0.0174032C178 0.0169754 178 0.0165565 178 0.0161463C178 0.0157361 178 0.0153346 178 0.0149417C178 0.0145488 178 0.0141645 178 0.0137887C178 0.0134129 178 0.0130456 178 0.0126867C178 0.0123279 178 0.0119774 178 0.0116353C178 0.0112931 178 0.0109593 178 0.0106337C178 0.0103081 178 0.00999065 178 0.00968136C178 0.00937207 178 0.00907089 178 0.00877773C178 0.00848457 178 0.00819942 178 0.0079222C178 0.00764497 178 0.00737566 178 0.00711416C178 0.00685267 178 0.006599 178 0.00635304C178 0.00610709 178 0.00586886 178 0.00563824C178 0.00540763 178 0.00518464 178 0.00496917C178 0.0047537 178 0.00454575 178 0.00434523C178 0.00414471 178 0.00395161 178 0.00376584C178 0.00358007 178 0.00340162 178 0.0032304C178 0.00305918 178 0.00289518 178 0.00273831C178 0.00258145 178 0.00243171 178 0.002289C178 0.00214629 178 0.00201061 178 0.00188186C178 0.00175311 178 0.0016313 178 0.00151631C178 0.00140132 178 0.00129317 178 0.00119175C178 0.00109033 178 0.000995642 178 0.000907589C178 0.000819537 178 0.000738119 178 0.000663237C178 0.000588355 178 0.00052001 178 0.000458102C178 0.000396193 178 0.000340723 178 0.000291591C178 0.000242459 178 0.000199666 178 0.000163113C178 0.00012656 178 9.62471e-05 178 7.20757e-05C178 4.79044e-05 178 2.98745e-05 178 1.78875e-05C178 5.90047e-06 178 -4.37113e-08 177 0ZM165 28.931L20 28.931L20 30.931L165 30.931L165 28.931ZM7 41.931L7 62L9 62L9 41.931L7 41.931ZM20 28.931C12.8203 28.931 7 34.7513 7 41.931L9 41.931C9 35.8559 13.9249 30.931 20 30.931L20 28.931ZM176 17.9156C176 23.9924 171.073 28.931 165 28.931L165 30.931C172.181 30.931 178 25.0936 178 17.9156L176 17.9156Z" fill="white"/>
</svg>
