<svg width="215" height="27" viewBox="0 0 215 27" fill="none" xmlns="http://www.w3.org/2000/svg">
<g clip-path="url(#clip0_5891_2559)">
<path d="M33.9858 9.01807C34.4751 10.4273 34.7229 11.9098 34.7188 13.4023C34.7232 15.694 34.1421 17.9484 33.0311 19.9497C31.9202 21.951 30.3167 23.6322 28.374 24.8323C29.4738 25.7253 30.7705 26.3405 32.1554 26.6264C33.5404 26.9124 34.9734 26.8607 36.3344 26.4758C37.6954 26.0909 38.9449 25.3838 39.9782 24.4139C41.0114 23.444 41.7985 22.2395 42.2734 20.9011C42.7484 19.5627 42.8973 18.1295 42.7079 16.7214C42.5185 15.3132 41.9961 13.9712 41.1846 12.8076C40.3731 11.644 39.296 10.6928 38.0435 10.0335C36.7911 9.37414 35.3996 9.02596 33.9858 9.01807Z" fill="#2D76E5"/>
<path d="M34.7187 13.4022C34.7228 11.9096 34.475 10.4272 33.9857 9.01795C33.0891 6.41641 31.4172 4.15539 29.1972 2.54214C26.9773 0.928887 24.317 0.041643 21.5777 0.000975038C18.8385 -0.0396929 16.1533 0.768188 13.8869 2.31483C11.6205 3.86148 9.88286 6.07188 8.91016 8.64566C13.2214 7.95258 18.2105 8.91497 21.3829 10.9744L25.9779 13.9765L30.0882 16.6617H28.3739V24.8322C30.3166 23.6321 31.9201 21.9509 33.0311 19.9496C34.142 17.9483 34.7231 15.6939 34.7187 13.4022Z" fill="#3180F4"/>
<path d="M8.91022 8.64589C6.57331 9.01818 4.43738 9.8776 2.90439 11.3271C2.82574 11.3943 2.75075 11.4657 2.67976 11.541C1.03652 13.1334 0.0693287 15.3025 -0.0196389 17.5949C-0.108607 19.8873 0.687537 22.1255 2.20237 23.8417C3.71721 25.5579 5.83348 26.6192 8.10882 26.8039C10.3842 26.9885 12.6424 26.2821 14.4116 24.8324V16.6619H12.6777L16.788 13.9767L21.383 10.9747C18.2106 8.9152 13.2215 7.95281 8.91022 8.64589Z" fill="#0A5ACB"/>
<path d="M19.4637 24.8323H23.3061V18.5747H19.4637V24.8323ZM22.4627 22.2461C22.5279 22.2471 22.59 22.2739 22.6357 22.3205C22.6814 22.3672 22.7071 22.4301 22.7071 22.4956C22.7076 22.528 22.7016 22.5601 22.6895 22.5902C22.6775 22.6202 22.6595 22.6475 22.6367 22.6704C22.6139 22.6933 22.5867 22.7114 22.5569 22.7235C22.527 22.7357 22.495 22.7417 22.4627 22.7411C22.3976 22.7411 22.335 22.7154 22.2885 22.6695C22.2421 22.6235 22.2155 22.5611 22.2144 22.4956C22.2155 22.4297 22.2419 22.3669 22.2883 22.3203C22.3346 22.2737 22.3972 22.2471 22.4627 22.2461Z" fill="#0A5ACB"/>
</g>
<g clip-path="url(#clip1_5891_2559)">
<path d="M65.2109 21.6471H61.8771V14.8684H55.6703V21.6471H52.3405V5.95459H55.6703V12.0903H61.8771V5.95459H65.195L65.2109 21.6471Z" fill="#0A5ACB"/>
<path d="M80.2789 15.6268C80.2789 17.5794 79.7624 19.1061 78.7292 20.2068C77.6961 21.3074 76.2603 21.8591 74.4219 21.8617C73.3554 21.8828 72.3025 21.6213 71.3702 21.1037C70.4893 20.5998 69.7815 19.8417 69.3397 18.9288C68.848 17.8987 68.6057 16.7676 68.6324 15.6268C68.6324 13.6662 69.1449 12.1422 70.1701 11.0548C71.1953 9.96734 72.6351 9.42362 74.4894 9.42362C75.5549 9.402 76.6074 9.66068 77.5411 10.1737C78.4202 10.671 79.128 11.4223 79.5716 12.3288C80.0637 13.3573 80.306 14.4872 80.2789 15.6268ZM71.9702 15.6268C71.9702 16.8121 72.1662 17.7091 72.5583 18.3176C72.7659 18.6258 73.0522 18.8729 73.3875 19.0334C73.7229 19.1938 74.0951 19.2619 74.4656 19.2304C74.8319 19.2617 75.1999 19.1943 75.5311 19.0351C75.8624 18.876 76.1449 18.6309 76.3491 18.3256C76.7464 17.7183 76.9252 16.8214 76.9252 15.6268C76.9252 14.4322 76.7305 13.5472 76.3451 12.9519C76.1338 12.6499 75.8467 12.4088 75.5126 12.2528C75.1785 12.0967 74.8092 12.0312 74.4417 12.0628C74.0765 12.0317 73.7094 12.0971 73.3774 12.2525C73.0454 12.4078 72.7602 12.6476 72.5503 12.9479C72.1662 13.5379 71.9728 14.4309 71.9702 15.6268Z" fill="#0A5ACB"/>
<path d="M94.1824 21.6476H90.9042V14.6387C90.953 13.9628 90.8083 13.2869 90.487 12.6901C90.3341 12.4727 90.1275 12.2985 89.8873 12.1844C89.6471 12.0704 89.3814 12.0203 89.1161 12.0392C88.756 12.0129 88.3956 12.0851 88.0736 12.248C87.7516 12.411 87.48 12.6584 87.2882 12.9639C86.8909 13.5791 86.72 14.5911 86.72 16V21.6476H83.4259V9.64601H85.9293L86.3703 11.1819H86.5531C86.8824 10.6246 87.3671 10.175 87.9478 9.8881C88.6001 9.56851 89.3195 9.4093 90.0459 9.42375C91.842 9.42375 93.0592 10.0098 93.6976 11.1819H93.9877C94.3199 10.6158 94.8158 10.1634 95.4102 9.88413C96.0722 9.56835 96.7987 9.41074 97.5321 9.42375C98.8938 9.42375 99.9242 9.77168 100.624 10.4675C101.323 11.166 101.669 12.2852 101.669 13.8212V21.6476H98.3825V14.6387C98.4285 13.9611 98.2781 13.2846 97.9494 12.6901C97.7968 12.4724 97.5902 12.298 97.3499 12.1839C97.1096 12.0698 96.8438 12.02 96.5785 12.0392C96.2312 12.0156 95.8837 12.0808 95.5687 12.2287C95.2537 12.3766 94.9817 12.6024 94.7784 12.8845C94.3811 13.456 94.1824 14.3649 94.1824 15.6111V21.6476Z" fill="#0A5ACB"/>
<path d="M110.911 21.8618C108.975 21.8618 107.464 21.3326 106.377 20.2743C105.291 19.2159 104.747 17.7065 104.744 15.7459C104.744 13.735 105.248 12.1806 106.254 11.0826C107.261 9.98456 108.652 9.43555 110.426 9.43555C112.127 9.43555 113.452 9.91841 114.4 10.8841C115.348 11.8499 115.819 13.1781 115.811 14.8688V16.4563H108.062C108.052 17.2615 108.349 18.0403 108.893 18.6352C109.181 18.9081 109.522 19.1193 109.895 19.2558C110.269 19.3923 110.666 19.4512 111.062 19.4289C111.752 19.4326 112.44 19.3567 113.113 19.2027C113.806 19.0324 114.48 18.7904 115.123 18.4804V21.0124C114.539 21.3018 113.921 21.5165 113.284 21.6514C112.502 21.8026 111.707 21.873 110.911 21.8618ZM110.45 11.7493C110.146 11.7335 109.842 11.7847 109.56 11.8992C109.278 12.0137 109.024 12.1888 108.817 12.4121C108.387 12.9429 108.148 13.6026 108.138 14.2854H112.739C112.769 13.6035 112.542 12.9352 112.103 12.4121C111.892 12.1897 111.634 12.0153 111.349 11.901C111.064 11.7866 110.757 11.7349 110.45 11.7493Z" fill="#0A5ACB"/>
<path d="M125.852 8.51863C125.287 8.4931 124.725 8.60897 124.216 8.85572C123.707 9.10247 123.268 9.47227 122.939 9.93151C122.253 10.8734 121.909 12.1845 121.906 13.8646C121.906 17.3597 123.221 19.1086 125.852 19.1113C127.224 19.0586 128.577 18.7797 129.857 18.2858V21.0639C128.485 21.6125 127.016 21.8823 125.538 21.8577C123.255 21.8577 121.508 21.1658 120.297 19.782C119.086 18.3982 118.481 16.4138 118.481 13.8288C118.447 12.351 118.751 10.885 119.371 9.54257C119.922 8.36592 120.815 7.38251 121.934 6.72078C123.127 6.04618 124.481 5.7074 125.852 5.74049C127.449 5.75748 129.021 6.13608 130.449 6.84778L129.377 9.55051C128.797 9.27701 128.204 9.03327 127.6 8.82026C127.039 8.6221 126.448 8.52012 125.852 8.51863Z" fill="#0A5ACB"/>
<path d="M136.656 21.6474H133.378V4.94678H136.656V21.6474Z" fill="#0A5ACB"/>
<path d="M151.45 15.6268C151.45 17.5794 150.935 19.1061 149.904 20.2068C148.874 21.3074 147.438 21.8591 145.597 21.8617C144.529 21.8845 143.474 21.6228 142.541 21.1037C141.66 20.5998 140.952 19.8417 140.511 18.9288C140.018 17.8991 139.774 16.768 139.799 15.6268C139.799 13.6662 140.312 12.1422 141.337 11.0548C142.362 9.96734 143.802 9.42362 145.656 9.42362C146.722 9.402 147.774 9.66068 148.708 10.1737C149.587 10.671 150.295 11.4223 150.739 12.3288C151.232 13.357 151.476 14.4869 151.45 15.6268ZM143.145 15.6268C143.145 16.8121 143.34 17.7091 143.729 18.3176C143.937 18.6252 144.224 18.8718 144.559 19.0322C144.894 19.1926 145.266 19.261 145.636 19.2304C146.003 19.2616 146.372 19.1941 146.704 19.035C147.036 18.8759 147.319 18.6309 147.524 18.3256C147.921 17.7183 148.1 16.8214 148.1 15.6268C148.1 14.4322 147.905 13.5472 147.52 12.9519C147.288 12.6743 146.998 12.451 146.67 12.2978C146.342 12.1446 145.985 12.0652 145.623 12.0652C145.261 12.0652 144.903 12.1446 144.575 12.2978C144.247 12.451 143.957 12.6743 143.725 12.9519C143.338 13.5392 143.145 14.4309 143.145 15.6268Z" fill="#0A5ACB"/>
<path d="M163.108 21.6476L162.667 20.1116H162.496C162.135 20.679 161.616 21.1287 161.002 21.4055C160.311 21.7183 159.559 21.8742 158.801 21.8619C157.391 21.8619 156.332 21.4835 155.622 20.7268C154.912 19.9701 154.553 18.8853 154.545 17.4724V9.646H157.823V16.6548C157.777 17.336 157.937 18.0152 158.284 18.6035C158.456 18.8264 158.681 19.0027 158.938 19.1164C159.196 19.2301 159.478 19.2776 159.758 19.2544C160.141 19.287 160.526 19.2193 160.874 19.0578C161.223 18.8963 161.523 18.6466 161.745 18.3336C162.153 17.7224 162.357 16.7091 162.357 15.2936V9.646H165.635V21.6476H163.108Z" fill="#0A5ACB"/>
<path d="M173.305 21.8617C172.657 21.885 172.014 21.7471 171.434 21.4602C170.853 21.1734 170.353 20.7467 169.979 20.2186C169.184 19.1232 168.787 17.6058 168.787 15.6664C168.787 13.682 169.184 12.166 170.018 11.0706C170.403 10.5373 170.914 10.1076 171.505 9.82011C172.097 9.53264 172.751 9.39638 173.408 9.42355C174.088 9.39096 174.765 9.53597 175.372 9.84428C175.979 10.1526 176.495 10.6135 176.869 11.1817H176.976C176.822 10.3971 176.739 9.60003 176.73 8.80045V4.94678H180.016V21.6474H177.501L176.869 20.0916H176.714C176.358 20.6657 175.853 21.1331 175.253 21.4446C174.653 21.7561 173.98 21.9002 173.305 21.8617ZM174.457 19.2542C174.802 19.2851 175.15 19.2352 175.473 19.1084C175.796 18.9816 176.085 18.7815 176.317 18.5239C176.706 18.0345 176.918 17.2076 176.952 16.0435V15.6902C176.952 14.4004 176.754 13.4796 176.356 12.9121C175.959 12.3446 175.299 12.0906 174.401 12.0906C174.061 12.0803 173.724 12.1609 173.425 12.3242C173.126 12.4874 172.876 12.7274 172.701 13.0193C172.295 13.6384 172.093 14.538 172.093 15.718C172.093 16.8981 172.297 17.7844 172.705 18.3771C172.897 18.6605 173.16 18.8898 173.467 19.0434C173.773 19.1969 174.114 19.2695 174.457 19.2542Z" fill="#0A5ACB"/>
</g>
<path d="M189.131 22V12.835H192.797C193.742 12.835 194.47 13.0473 194.981 13.472C195.501 13.888 195.761 14.473 195.761 15.227C195.761 15.7297 195.631 16.1587 195.371 16.514C195.111 16.8693 194.751 17.1293 194.292 17.294C194.821 17.4327 195.232 17.6883 195.527 18.061C195.83 18.4337 195.982 18.906 195.982 19.478C195.982 20.2927 195.718 20.9167 195.189 21.35C194.66 21.7833 193.915 22 192.953 22H189.131ZM190.171 16.93H192.641C194.019 16.93 194.708 16.3927 194.708 15.318C194.708 14.2347 194.019 13.693 192.641 13.693H190.171V16.93ZM190.171 21.142H192.849C194.236 21.142 194.929 20.583 194.929 19.465C194.929 18.347 194.236 17.788 192.849 17.788H190.171V21.142ZM200.547 22.117C199.55 22.117 198.762 21.8267 198.181 21.246C197.6 20.6567 197.31 19.8593 197.31 18.854C197.31 18.204 197.44 17.632 197.7 17.138C197.96 16.6353 198.315 16.2497 198.766 15.981C199.225 15.7037 199.754 15.565 200.352 15.565C201.21 15.565 201.882 15.8423 202.367 16.397C202.852 16.943 203.095 17.697 203.095 18.659V19.062H198.337C198.372 19.7813 198.58 20.3317 198.961 20.713C199.342 21.0857 199.871 21.272 200.547 21.272C200.928 21.272 201.292 21.2157 201.639 21.103C201.986 20.9817 202.315 20.7867 202.627 20.518L202.991 21.259C202.705 21.5277 202.341 21.74 201.899 21.896C201.457 22.0433 201.006 22.117 200.547 22.117ZM200.378 16.345C199.78 16.345 199.308 16.5313 198.961 16.904C198.614 17.2767 198.411 17.7663 198.35 18.373H202.185C202.159 17.7317 201.99 17.2333 201.678 16.878C201.375 16.5227 200.941 16.345 200.378 16.345ZM207.081 22.117C206.336 22.117 205.777 21.922 205.404 21.532C205.031 21.1333 204.845 20.5613 204.845 19.816V16.501H203.61V15.682H204.845V13.745H205.898V15.682H207.9V16.501H205.898V19.712C205.898 20.206 206.002 20.583 206.21 20.843C206.418 21.0943 206.756 21.22 207.224 21.22C207.363 21.22 207.501 21.2027 207.64 21.168C207.779 21.1333 207.904 21.0987 208.017 21.064L208.199 21.87C208.086 21.9307 207.922 21.987 207.705 22.039C207.488 22.091 207.28 22.117 207.081 22.117ZM211.007 22.117C210.573 22.117 210.183 22.0347 209.837 21.87C209.499 21.6967 209.23 21.4627 209.031 21.168C208.831 20.8733 208.732 20.544 208.732 20.18C208.732 19.7207 208.849 19.3567 209.083 19.088C209.325 18.8193 209.72 18.6287 210.266 18.516C210.82 18.3947 211.574 18.334 212.528 18.334H212.944V17.931C212.944 17.3937 212.831 17.008 212.606 16.774C212.389 16.5313 212.038 16.41 211.553 16.41C211.171 16.41 210.803 16.4663 210.448 16.579C210.092 16.683 209.728 16.8563 209.356 17.099L208.992 16.332C209.321 16.098 209.72 15.9117 210.188 15.773C210.664 15.6343 211.119 15.565 211.553 15.565C212.367 15.565 212.97 15.7643 213.36 16.163C213.758 16.5617 213.958 17.1813 213.958 18.022V22H212.97V20.908C212.805 21.2807 212.549 21.5753 212.203 21.792C211.865 22.0087 211.466 22.117 211.007 22.117ZM211.176 21.324C211.696 21.324 212.12 21.1463 212.45 20.791C212.779 20.427 212.944 19.9677 212.944 19.413V19.023H212.541C211.839 19.023 211.284 19.0577 210.877 19.127C210.478 19.1877 210.196 19.3003 210.032 19.465C209.876 19.621 209.798 19.8377 209.798 20.115C209.798 20.4703 209.919 20.7607 210.162 20.986C210.413 21.2113 210.751 21.324 211.176 21.324Z" fill="#808FAD"/>
<defs>
<clipPath id="clip0_5891_2559">
<rect width="42.766" height="26.8085" fill="white"/>
</clipPath>
<clipPath id="clip1_5891_2559">
<rect width="127.66" height="16.9149" fill="white" transform="translate(52.3405 4.94678)"/>
</clipPath>
</defs>
</svg>
